<?xml version="1.0" encoding="UTF-8" standalone="no"?>
<!-- Created with Inkscape (http://www.inkscape.org/) -->

<svg
   xmlns:dc="http://purl.org/dc/elements/1.1/"
   xmlns:cc="http://creativecommons.org/ns#"
   xmlns:rdf="http://www.w3.org/1999/02/22-rdf-syntax-ns#"
   xmlns:svg="http://www.w3.org/2000/svg"
   xmlns="http://www.w3.org/2000/svg"
   xmlns:sodipodi="http://sodipodi.sourceforge.net/DTD/sodipodi-0.dtd"
   xmlns:inkscape="http://www.inkscape.org/namespaces/inkscape"
   width="210mm"
   height="297mm"
   viewBox="0 0 210 297"
   version="1.1"
   id="svg8"
   inkscape:version="0.92.1 r15371"
   sodipodi:docname="Nerving5.svg">
  <defs
     id="defs2">
    <marker
       inkscape:stockid="Arrow2Lend"
       orient="auto"
       refY="0.0"
       refX="0.0"
       id="Arrow2Lend"
       style="overflow:visible;"
       inkscape:isstock="true">
      <path
         id="path4512"
         style="fill-rule:evenodd;stroke-width:0.625;stroke-linejoin:round;stroke:#000000;stroke-opacity:1;fill:#000000;fill-opacity:1"
         d="M 8.7185878,4.0337352 L -2.2072895,0.016013256 L 8.7185884,-4.0017078 C 6.9730900,-1.6296469 6.9831476,1.6157441 8.7185878,4.0337352 z "
         transform="scale(1.1) rotate(180) translate(1,0)" />
    </marker>
  </defs>
  <sodipodi:namedview
     id="base"
     pagecolor="#ffffff"
     bordercolor="#666666"
     borderopacity="1.0"
     inkscape:pageopacity="0.0"
     inkscape:pageshadow="2"
     inkscape:zoom="3.959798"
     inkscape:cx="309.75572"
     inkscape:cy="895.29672"
     inkscape:document-units="mm"
     inkscape:current-layer="layer2"
     showgrid="false"
     inkscape:window-width="1920"
     inkscape:window-height="986"
     inkscape:window-x="-11"
     inkscape:window-y="-11"
     inkscape:window-maximized="1"
     inkscape:snap-global="false" />
  <metadata
     id="metadata5">
    <rdf:RDF>
      <cc:Work
         rdf:about="">
        <dc:format>image/svg+xml</dc:format>
        <dc:type
           rdf:resource="http://purl.org/dc/dcmitype/StillImage" />
        <dc:title></dc:title>
      </cc:Work>
    </rdf:RDF>
  </metadata>
  <g
     inkscape:groupmode="layer"
     id="layer2"
     inkscape:label="Layer 2">
    <path
       style="opacity:0.264;fill:#0300c5;fill-opacity:0.99186993;fill-rule:nonzero;stroke:none;stroke-width:0.06692261;stroke-miterlimit:4;stroke-dasharray:none;stroke-dashoffset:0;stroke-opacity:0.61788617"
       d="m 96.76555,81.578275 c -2.20518,-0.182436 -4.01641,-0.557488 -5.84652,-1.210643 -3.3849,-1.208051 -6.67739,-2.989281 -9.04949,-4.895758 -0.71348,-0.573431 -1.81901,-1.639879 -2.14081,-2.065139 l -0.1946,-0.257175 0.11876,-0.945539 c 0.80792,-6.431976 2.67328,-11.034601 5.79897,-14.308397 2.16504,-2.267643 5.00902,-4.003309 8.53377,-5.208119 l 0.89505,-0.30594 0.77539,0.340934 c 2.16201,0.950621 4.65243,2.459863 7.59076,4.600146 2.76449,2.013654 4.58412,3.545555 6.24743,5.259544 1.58413,1.632397 2.62276,3.047714 3.37604,4.600438 1.21257,2.499471 1.36267,4.51871 0.56868,7.650588 -0.34969,1.379355 -0.87382,2.660364 -1.41635,3.461613 -0.39907,0.58937 -1.14937,1.254982 -1.74492,1.547947 -1.12304,0.552455 -4.763,1.311098 -7.89412,1.645301 -1.12658,0.120248 -4.58389,0.175755 -5.61804,0.0902 z"
       id="path4506"
       inkscape:connector-curvature="0" />
    <path
       style="fill:none;stroke:#fe0000;stroke-width:0.26458332px;stroke-linecap:butt;stroke-linejoin:miter;stroke-opacity:1;opacity:0.267"
       d="M 61.405174,57.927409 C 62.387089,48.129815 73.296561,44.079753 84.1899,40.020351"
       id="path5092"
       inkscape:connector-curvature="0"
       sodipodi:nodetypes="cc" />
    <path
       style="fill:none;stroke:#f80000;stroke-width:0.26458332px;stroke-linecap:butt;stroke-linejoin:miter;stroke-opacity:0.99593496;opacity:0.282"
       d="M 96.030559,81.778727 C 101.85185,75.733312 106.60134,68.713108 107.44235,60.533286"
       id="path5094"
       inkscape:connector-curvature="0"
       sodipodi:nodetypes="cc" />
    <path
       style="opacity:0.26700003;fill:#ff0000;fill-opacity:0.99186993;fill-rule:nonzero;stroke:none;stroke-width:0.25293583;stroke-miterlimit:4;stroke-dasharray:none;stroke-dashoffset:0;stroke-opacity:1"
       d="m 296.9416,272.20087 c -5.61015,-9.18115 -12.02695,-18.31775 -17.65624,-25.13993 -3.49943,-4.24098 -12.06907,-12.73286 -15.64311,-15.50116 -9.1677,-7.10092 -18.576,-11.39736 -27.42043,-12.52193 -3.46848,-0.44102 -3.38922,-0.41175 -3.38922,-1.2518 0,-1.43589 1.05941,-6.20408 2.04596,-9.20845 5.72265,-17.42744 21.67657,-31.15526 51.23959,-44.08999 6.77375,-2.96373 26.82953,-10.85425 27.58885,-10.85425 0.14776,0 -0.45302,0.46643 -1.33505,1.03652 -3.51894,2.2744 -6.28595,5.73506 -8.62592,10.78834 -1.73804,3.75337 -2.29118,6.04988 -2.32212,9.64088 -0.0233,2.69808 0.0585,3.40499 0.56296,4.86546 1.22357,3.54266 3.91405,6.46052 7.66138,8.30886 3.65678,1.80368 5.21731,2.12353 18.8963,3.87306 10.82366,1.38433 14.1675,1.9282 18.70442,3.04221 4.40899,1.0826 9.19746,2.62564 8.91398,2.87244 -0.1199,0.1044 -1.46807,0.62297 -2.99593,1.15238 -3.82896,1.32676 -7.98045,3.12806 -11.86929,5.14998 -17.60177,9.15169 -29.04756,22.58067 -35.63666,41.81138 -2.38166,6.95101 -4.47512,16.12168 -5.68156,24.88872 -0.31538,2.29178 -0.65297,4.26249 -0.75022,4.37934 -0.0972,0.11686 -1.1267,-1.34207 -2.28769,-3.24206 z m 6.99196,-42.92086 c 0.76036,-0.76036 0.8908,-2.41059 0.19056,-2.41059 -0.33391,0 -0.36197,-0.0674 -0.12627,-0.30305 0.46049,-0.4605 0.3743,-0.65729 -0.48177,-1.09998 -1.51975,-0.78589 -3.00326,0.22553 -3.00326,2.04755 0,2.05068 2.06831,3.1185 3.42074,1.76607 z"
       id="path5096"
       inkscape:connector-curvature="0"
       transform="scale(0.26458333)" />
    <path
       style="opacity:0.26700003;fill:#ff0000;fill-opacity:0.99186994;fill-rule:nonzero;stroke:none;stroke-width:0.25293583;stroke-miterlimit:4;stroke-dasharray:none;stroke-dashoffset:0;stroke-opacity:1"
       d="m 359.22794,307.53639 c -8.08095,-1.24029 -15.79875,-3.58297 -24.53011,-7.44592 -12.68502,-5.61213 -22.77982,-12.1302 -30.32452,-19.5801 l -3.67834,-3.63213 0.16999,-1.70777 c 1.41397,-14.20499 5.48184,-29.46766 10.52958,-39.50712 0.54626,-1.08647 0.92691,-1.9754 0.84587,-1.9754 -0.081,0 -0.92223,1.6194 -1.86932,3.59866 -4.56695,9.54426 -7.46602,20.14384 -9.53428,34.85926 -0.58351,4.15165 -0.71266,4.69819 -1.03421,4.37665 -0.43065,-0.43066 -0.23714,-2.36208 0.98252,-9.80602 3.58407,-21.87477 10.55183,-37.28764 22.07138,-48.8225 3.69592,-3.70083 6.24474,-5.80853 10.48628,-8.67143 6.12098,-4.13146 12.42498,-7.2556 20.41885,-10.11919 2.99585,-1.07318 3.31973,-1.15288 3.31973,-0.81689 0,0.11353 -0.65344,0.40939 -1.45209,0.65746 -5.16277,1.60364 -13.24352,5.32265 -18.51409,8.52075 -6.83738,4.14882 -13.66482,10.08575 -17.66865,15.36411 l -1.05358,1.38896 1.07477,-1.2627 c 2.42341,-2.84711 8.38511,-8.4889 11.22341,-10.62112 6.91111,-5.19186 14.80196,-9.2949 23.95879,-12.45796 l 3.62969,-1.2538 2.81614,1.22522 c 11.40234,4.96083 27.35555,15.47458 42.50971,28.01546 2.02028,1.67189 1.97907,1.40879 1.06695,6.81147 -3.22626,19.10994 -12.02862,37.6239 -26.90646,56.5923 -3.42237,4.36333 -6.68504,8.18748 -11.15002,13.06885 -3.74399,4.09314 -3.17655,3.84729 -7.38799,3.2009 z M 318.2227,224.65971 c 0.31413,-0.40054 0.3052,-0.40948 -0.0953,-0.0953 -0.24307,0.19063 -0.44195,0.3895 -0.44195,0.44194 0,0.20785 0.20738,0.0741 0.53729,-0.34659 z"
       id="path5098"
       inkscape:connector-curvature="0"
       transform="scale(0.26458333)" />
  </g>
  <g
     inkscape:label="Layer 1"
     inkscape:groupmode="layer"
     id="layer1">
    <path
       style="fill:none;stroke:#000000;stroke-width:0.20453465;stroke-linecap:butt;stroke-linejoin:miter;stroke-miterlimit:4;stroke-dasharray:none;stroke-opacity:1"
       d="m 17.76503,44.183969 c 2.740332,-3.968145 7.543552,-4.687535 22.171704,-2.917329 14.628152,1.770206 16.126042,-22.736519 21.004773,-27.27703 4.878732,-4.5405116 8.234773,-2.761858 12.252784,0 4.018009,2.761857 4.803507,4.023195 7.147459,6.272258 2.343952,2.249063 3.686903,5.288426 7.439191,3.500795 3.752285,-1.78763 8.751992,-3.648698 13.127989,-3.646662 4.01405,0.877876 7.26552,2.819069 9.48132,5.83466 2.33062,3.17186 -0.0602,5.83642 -2.91734,7.001591 -8.188832,3.339533 -23.579497,5.546131 -26.1101,9.335456 -3.004267,4.498602 -1.255673,7.42918 2.6256,8.022653 6.401127,0.978776 9.789186,0.42428 17.94158,6.126392 7.48484,5.2352 13.0124,10.501518 11.96105,16.774646 -0.74072,4.419594 -2.14228,6.659368 -4.52186,7.293326 -7.04173,1.876021 -13.54704,1.921286 -18.233307,0.29173 C 85.705452,78.908135 80.622418,75.724993 78.59135,72.3362 70.820363,59.370454 64.169948,57.047439 57.732444,58.187153 c -12.931531,2.289434 -23.463837,4.66608 -29.75676,1.458663 -3.456166,-1.76156 -7.337542,-3.166592 -10.210654,-6.12639 -2.472852,-2.547463 -2.366795,-5.908211 0,-9.335457 z"
       id="path4485"
       inkscape:connector-curvature="0"
       sodipodi:nodetypes="szzzzzcsssssssssssss" />
    <path
       style="fill:none;stroke:#000000;stroke-width:0.26499999;stroke-linecap:butt;stroke-linejoin:miter;stroke-miterlimit:4;stroke-dasharray:none;stroke-opacity:1"
       d="m 156.2244,44.330006 c 0.71634,3.670381 -0.79109,7.475864 4.38303,10.95755 1.91138,1.286176 4.47297,2.515593 11.10365,2.483712 2.89919,-0.01394 5.45525,-0.08575 8.61994,-3.944718 0.58272,-0.710556 3.4139,-7.311949 -1.46101,-7.743337 -2.91886,-0.258294 -5.28037,-0.215892 -7.30503,-2.337612 -2.12323,-2.225019 -3.052,-5.396487 -5.40573,-6.428429 -3.21175,-1.408128 -5.30105,-0.174036 -7.30504,1.022705 -2.5566,1.526742 -3.05028,3.835621 -2.62981,5.990129 z"
       id="path4487"
       inkscape:connector-curvature="0"
       sodipodi:nodetypes="sssssssss" />
    <path
       style="fill:none;stroke:#000000;stroke-width:0.26458332px;stroke-linecap:butt;stroke-linejoin:miter;stroke-opacity:1;marker-end:url(#Arrow2Lend)"
       d="m 120.19643,46.590772 h 28.72619"
       id="path4489"
       inkscape:connector-curvature="0" />
    <path
       style="fill:none;stroke:#000000;stroke-width:0.26458332px;stroke-linecap:butt;stroke-linejoin:miter;stroke-opacity:1"
       d="m 159.82717,42.559409 c 3.08206,2.127458 5.46825,1.471415 7.48355,-0.668174"
       id="path4773"
       inkscape:connector-curvature="0"
       sodipodi:nodetypes="cc" />
    <path
       style="fill:none;stroke:#000000;stroke-width:0.26458332px;stroke-linecap:butt;stroke-linejoin:miter;stroke-opacity:1"
       d="m 161.63124,43.494851 c 1.31909,-0.793038 2.78064,-0.616447 4.27632,-0.534538"
       id="path4775"
       inkscape:connector-curvature="0"
       sodipodi:nodetypes="cc" />
    <path
       style="opacity:0.894;fill:#f60000;fill-opacity:1;fill-rule:nonzero;stroke:#f60000;stroke-width:0.26499999;stroke-miterlimit:4;stroke-dasharray:none;stroke-dashoffset:0;stroke-opacity:1"
       id="path4777"
       sodipodi:type="arc"
       sodipodi:cx="172.65611"
       sodipodi:cy="51.446121"
       sodipodi:rx="0.4009043"
       sodipodi:ry="0.46772167"
       sodipodi:start="0"
       sodipodi:end="5.4427395"
       d="m 173.05702,51.446121 a 0.4009043,0.46772167 0 0 1 -0.31729,0.457436 0.4009043,0.46772167 0 0 1 -0.44964,-0.266622 0.4009043,0.46772167 0 0 1 0.12972,-0.568654 0.4009043,0.46772167 0 0 1 0.50376,0.02942 l -0.26746,0.348425 z" />
    <path
       style="opacity:0.894;fill:#f60000;fill-opacity:1;fill-rule:nonzero;stroke:#f60000;stroke-width:0.26499999;stroke-miterlimit:4;stroke-dasharray:none;stroke-dashoffset:0;stroke-opacity:1"
       id="path4777-9"
       sodipodi:type="arc"
       sodipodi:cx="106.24017"
       sodipodi:cy="75.164612"
       sodipodi:rx="0.4009043"
       sodipodi:ry="0.46772167"
       sodipodi:start="0"
       sodipodi:end="5.4427395"
       d="m 106.64108,75.164612 a 0.4009043,0.46772167 0 0 1 -0.31729,0.457435 0.4009043,0.46772167 0 0 1 -0.44964,-0.266622 0.4009043,0.46772167 0 0 1 0.12972,-0.568653 0.4009043,0.46772167 0 0 1 0.50376,0.02942 l -0.26746,0.348425 z" />
    <path
       style="opacity:0.894;fill:#f60000;fill-opacity:1;fill-rule:nonzero;stroke:#f60000;stroke-width:0.26499999;stroke-miterlimit:4;stroke-dasharray:none;stroke-dashoffset:0;stroke-opacity:1"
       id="path4777-6"
       sodipodi:type="arc"
       sodipodi:cx="80.04776"
       sodipodi:cy="60.197521"
       sodipodi:rx="0.4009043"
       sodipodi:ry="0.46772167"
       sodipodi:start="0"
       sodipodi:end="5.4427395"
       d="m 80.448664,60.197521 a 0.4009043,0.46772167 0 0 1 -0.317288,0.457436 0.4009043,0.46772167 0 0 1 -0.449641,-0.266622 0.4009043,0.46772167 0 0 1 0.129726,-0.568654 0.4009043,0.46772167 0 0 1 0.503755,0.02942 l -0.267456,0.348425 z" />
    <path
       style="opacity:0.894;fill:#f60000;fill-opacity:1;fill-rule:nonzero;stroke:#f60000;stroke-width:0.26499999;stroke-miterlimit:4;stroke-dasharray:none;stroke-dashoffset:0;stroke-opacity:1"
       id="path4777-61"
       sodipodi:type="arc"
       sodipodi:cx="94.480316"
       sodipodi:cy="28.258816"
       sodipodi:rx="0.4009043"
       sodipodi:ry="0.46772167"
       sodipodi:start="0"
       sodipodi:end="5.4427395"
       d="m 94.88122,28.258816 a 0.4009043,0.46772167 0 0 1 -0.317288,0.457435 0.4009043,0.46772167 0 0 1 -0.449641,-0.266622 0.4009043,0.46772167 0 0 1 0.129726,-0.568653 0.4009043,0.46772167 0 0 1 0.503755,0.02942 l -0.267456,0.348425 z" />
    <path
       style="opacity:0.894;fill:#f60000;fill-opacity:1;fill-rule:nonzero;stroke:#f60000;stroke-width:0.26499999;stroke-miterlimit:4;stroke-dasharray:none;stroke-dashoffset:0;stroke-opacity:1"
       id="path4777-3"
       sodipodi:type="arc"
       sodipodi:cx="66.283386"
       sodipodi:cy="18.637112"
       sodipodi:rx="0.4009043"
       sodipodi:ry="0.46772167"
       sodipodi:start="0"
       sodipodi:end="5.4427395"
       d="m 66.684291,18.637112 a 0.4009043,0.46772167 0 0 1 -0.317289,0.457435 0.4009043,0.46772167 0 0 1 -0.449641,-0.266622 0.4009043,0.46772167 0 0 1 0.129726,-0.568653 0.4009043,0.46772167 0 0 1 0.503755,0.02942 l -0.267456,0.348425 z" />
    <path
       style="opacity:0.894;fill:#f60000;fill-opacity:1;fill-rule:nonzero;stroke:#f60000;stroke-width:0.26499999;stroke-miterlimit:4;stroke-dasharray:none;stroke-dashoffset:0;stroke-opacity:1"
       id="path4777-32"
       sodipodi:type="arc"
       sodipodi:cx="27.128395"
       sodipodi:cy="50.041283"
       sodipodi:rx="0.4009043"
       sodipodi:ry="0.46772167"
       sodipodi:start="0"
       sodipodi:end="5.4427395"
       d="m 27.529299,50.041283 a 0.4009043,0.46772167 0 0 1 -0.317288,0.457435 0.4009043,0.46772167 0 0 1 -0.449641,-0.266622 0.4009043,0.46772167 0 0 1 0.129726,-0.568653 0.4009043,0.46772167 0 0 1 0.503755,0.02942 l -0.267456,0.348425 z" />
    <path
       style="opacity:0.894;fill:#f60000;fill-opacity:1;fill-rule:nonzero;stroke:#f60000;stroke-width:0.26499999;stroke-miterlimit:4;stroke-dasharray:none;stroke-dashoffset:0;stroke-opacity:1"
       id="path4777-8"
       sodipodi:type="arc"
       sodipodi:cx="63.076138"
       sodipodi:cy="45.4977"
       sodipodi:rx="0.4009043"
       sodipodi:ry="0.46772167"
       sodipodi:start="0"
       sodipodi:end="5.4427395"
       d="m 63.477042,45.4977 a 0.4009043,0.46772167 0 0 1 -0.317288,0.457435 0.4009043,0.46772167 0 0 1 -0.449641,-0.266622 0.4009043,0.46772167 0 0 1 0.129726,-0.568653 0.4009043,0.46772167 0 0 1 0.503754,0.02942 L 63.076138,45.4977 Z" />
    <path
       style="fill:none;stroke:#0000c5;stroke-width:0.26458332px;stroke-linecap:butt;stroke-linejoin:miter;stroke-opacity:0.97560978;fill-opacity:1;opacity:0.27"
       d="M 79.312232,73.295406 C 80.377825,64.228379 83.072117,55.98905 94.88068,52.381565"
       id="path4504"
       inkscape:connector-curvature="0"
       sodipodi:nodetypes="cc" />
  </g>
</svg>
