<?xml version="1.0" encoding="UTF-8" standalone="no"?>
<!-- Created with Inkscape (http://www.inkscape.org/) -->

<svg
   xmlns:dc="http://purl.org/dc/elements/1.1/"
   xmlns:cc="http://creativecommons.org/ns#"
   xmlns:rdf="http://www.w3.org/1999/02/22-rdf-syntax-ns#"
   xmlns:svg="http://www.w3.org/2000/svg"
   xmlns="http://www.w3.org/2000/svg"
   xmlns:sodipodi="http://sodipodi.sourceforge.net/DTD/sodipodi-0.dtd"
   xmlns:inkscape="http://www.inkscape.org/namespaces/inkscape"
   width="210mm"
   height="297mm"
   viewBox="0 0 210 297"
   version="1.1"
   id="svg8"
   inkscape:version="0.92.1 r15371"
   sodipodi:docname="Nerved.svg">
  <defs
     id="defs2" />
  <sodipodi:namedview
     id="base"
     pagecolor="#ffffff"
     bordercolor="#666666"
     borderopacity="1.0"
     inkscape:pageopacity="0.0"
     inkscape:pageshadow="2"
     inkscape:zoom="1.4"
     inkscape:cx="410.22492"
     inkscape:cy="909.16899"
     inkscape:document-units="mm"
     inkscape:current-layer="layer1"
     showgrid="false"
     inkscape:snap-global="false"
     inkscape:window-width="1920"
     inkscape:window-height="986"
     inkscape:window-x="-11"
     inkscape:window-y="-11"
     inkscape:window-maximized="1" />
  <metadata
     id="metadata5">
    <rdf:RDF>
      <cc:Work
         rdf:about="">
        <dc:format>image/svg+xml</dc:format>
        <dc:type
           rdf:resource="http://purl.org/dc/dcmitype/StillImage" />
        <dc:title />
      </cc:Work>
    </rdf:RDF>
  </metadata>
  <g
     inkscape:label="Layer 1"
     inkscape:groupmode="layer"
     id="layer1">
    <path
       style="opacity:0.29899998;fill:#0000f9;fill-opacity:1;stroke:#0000fa;stroke-width:0.23498507px;stroke-linecap:butt;stroke-linejoin:miter;stroke-opacity:1"
       d="m 15.159711,6.7372477 c -1.762082,1.722317 -2.753277,4.1128423 -1.78883,7.0280303 0.556124,1.68097 1.041687,3.555084 6.366131,5.689357 1.625605,0.651615 3.195203,0.586597 7.155319,-0.602402 3.152474,-0.94651 9.209376,-1.761763 6.155681,-10.6424457 -1.769496,-5.1460066 -3.965045,-5.8224239 -7.94451,-5.0869549 -3.432328,0.6343491 -7.415755,1.1434291 -9.943791,3.6144153 z"
       id="path4485"
       inkscape:connector-curvature="0"
       sodipodi:nodetypes="sssssss" />
    <path
       style="opacity:0.29899998;fill:#ff0000;fill-opacity:1;stroke:#ff0000;stroke-width:0.17700687px;stroke-linecap:butt;stroke-linejoin:miter;stroke-opacity:1"
       d="m 38.642135,18.22312 c 1.550376,1.110712 3.702252,1.735505 6.326414,1.127574 1.513156,-0.350549 3.200175,-0.656619 5.121381,-4.012837 0.586563,-1.024686 0.528036,-2.014068 -0.542264,-4.510294 -0.852018,-1.9871341 -1.585884,-5.8050502 -9.579997,-3.8801797 -4.632274,1.1153865 -5.241163,2.499332 -4.579118,5.0077537 0.571022,2.163538 1.02928,4.674457 3.253584,6.267983 z"
       id="path4485-5"
       inkscape:connector-curvature="0"
       sodipodi:nodetypes="sssssss" />
    <path
       style="opacity:1;fill:#000000;fill-opacity:1;fill-rule:nonzero;stroke:none;stroke-width:0.26499999;stroke-miterlimit:4;stroke-dasharray:none;stroke-dashoffset:0;stroke-opacity:1"
       id="path4504"
       sodipodi:type="arc"
       sodipodi:cx="24.675591"
       sodipodi:cy="26.784945"
       sodipodi:rx="0.63476509"
       sodipodi:ry="0.46772167"
       sodipodi:start="0"
       sodipodi:end="6.2788278"
       d="m 25.310356,26.784945 a 0.63476509,0.46772167 0 0 1 -0.634074,0.467721 0.63476509,0.46772167 0 0 1 -0.635455,-0.466702 0.63476509,0.46772167 0 0 1 0.632689,-0.468739 0.63476509,0.46772167 0 0 1 0.636834,0.465681 l -0.634759,0.002 z" />
    <path
       style="opacity:1;fill:#000000;fill-opacity:1;fill-rule:nonzero;stroke:none;stroke-width:0.26499999;stroke-miterlimit:4;stroke-dasharray:none;stroke-dashoffset:0;stroke-opacity:1"
       id="path4504-3"
       sodipodi:type="arc"
       sodipodi:cx="41.524391"
       sodipodi:cy="26.731556"
       sodipodi:rx="0.63476509"
       sodipodi:ry="0.46772167"
       sodipodi:start="0"
       sodipodi:end="6.2788278"
       d="m 42.159156,26.731556 a 0.63476509,0.46772167 0 0 1 -0.634073,0.467721 0.63476509,0.46772167 0 0 1 -0.635455,-0.466702 0.63476509,0.46772167 0 0 1 0.632689,-0.468738 0.63476509,0.46772167 0 0 1 0.636833,0.465681 l -0.634759,0.002 z" />
    <path
       style="opacity:0.29899998;fill:#0000f9;fill-opacity:1;stroke:#0000fa;stroke-width:0.26458332px;stroke-linecap:butt;stroke-linejoin:miter;stroke-opacity:1"
       d="m 93.294733,7.0697831 c -2.237822,1.719326 -3.496627,4.1056989 -2.271792,7.0158259 0.70627,1.678051 1.322929,3.54891 8.084904,5.679477 2.064495,0.650482 4.057865,0.585578 9.087165,-0.601357 4.0036,-0.944865 11.69579,-1.758703 7.81764,-10.6239639 -2.24724,-5.13707 -5.03556,-5.812312 -10.08943,-5.078121 -4.35901,0.633248 -9.417914,1.141444 -12.628487,3.608139 z"
       id="path4485-56"
       inkscape:connector-curvature="0"
       sodipodi:nodetypes="sssssss" />
    <path
       style="opacity:0.29899998;fill:#ff0000;fill-opacity:1;stroke:#ff0000;stroke-width:0.21125764px;stroke-linecap:butt;stroke-linejoin:miter;stroke-opacity:1"
       d="m 114.12766,17.229763 c 1.71934,1.426676 4.10571,2.229202 7.01584,1.448334 1.67805,-0.450269 3.54891,-0.843406 5.67947,-5.154362 0.65049,-1.316176 0.58558,-2.587006 -0.60135,-5.793329 -0.94487,-2.552411 -1.75871,-7.45640295 -10.62397,-4.983968 -5.13708,1.432679 -5.81232,3.210313 -5.07813,6.432301 0.63325,2.778995 1.14145,6.004191 3.60814,8.051024 z"
       id="path4485-5-0"
       inkscape:connector-curvature="0"
       sodipodi:nodetypes="sssssss" />
    <path
       style="opacity:1;fill:#000000;fill-opacity:1;fill-rule:nonzero;stroke:none;stroke-width:0.26499999;stroke-miterlimit:4;stroke-dasharray:none;stroke-dashoffset:0;stroke-opacity:1"
       id="path4504-4"
       sodipodi:type="arc"
       sodipodi:cx="104.95437"
       sodipodi:cy="30.789955"
       sodipodi:rx="0.63476509"
       sodipodi:ry="0.46772167"
       sodipodi:start="0"
       sodipodi:end="6.2788278"
       d="m 105.58913,30.789955 a 0.63476509,0.46772167 0 0 1 -0.63407,0.467722 0.63476509,0.46772167 0 0 1 -0.63545,-0.466703 0.63476509,0.46772167 0 0 1 0.63268,-0.468738 0.63476509,0.46772167 0 0 1 0.63684,0.465681 l -0.63476,0.002 z" />
    <path
       style="opacity:1;fill:#000000;fill-opacity:1;fill-rule:nonzero;stroke:none;stroke-width:0.26499999;stroke-miterlimit:4;stroke-dasharray:none;stroke-dashoffset:0;stroke-opacity:1"
       id="path4504-3-7"
       sodipodi:type="arc"
       sodipodi:cx="121.82981"
       sodipodi:cy="30.668478"
       sodipodi:rx="0.63476509"
       sodipodi:ry="0.46772167"
       sodipodi:start="0"
       sodipodi:end="6.2788278"
       d="m 122.46458,30.668478 a 0.63476509,0.46772167 0 0 1 -0.63408,0.467721 0.63476509,0.46772167 0 0 1 -0.63545,-0.466702 0.63476509,0.46772167 0 0 1 0.63269,-0.468738 0.63476509,0.46772167 0 0 1 0.63683,0.465681 l -0.63476,0.002 z" />
    <path
       style="fill:none;stroke:#000000;stroke-width:0.26458332px;stroke-linecap:butt;stroke-linejoin:miter;stroke-opacity:1"
       d="m 105.03428,30.776622 16.77117,-0.02698"
       id="path4545"
       inkscape:connector-curvature="0"
       sodipodi:nodetypes="cc" />
    <path
       style="opacity:0.29899998;fill:#0000f9;fill-opacity:1;stroke:#0000fa;stroke-width:0.20750639px;stroke-linecap:butt;stroke-linejoin:miter;stroke-opacity:1"
       d="m 171.06362,8.5481912 c -1.3719,1.7250368 -2.14361,4.1193388 -1.39272,7.0391338 0.43297,1.683625 0.81102,3.5607 4.95647,5.698345 1.26564,0.652644 2.48768,0.587525 5.5709,-0.603354 2.45442,-0.948004 7.17013,-1.764547 4.79263,-10.659259 -1.37768,-5.1541374 -3.08707,-5.8316225 -6.18535,-5.0949925 -2.67231,0.6353519 -5.77368,1.145236 -7.74193,3.6201267 z"
       id="path4485-56-7"
       inkscape:connector-curvature="0"
       sodipodi:nodetypes="sssssss" />
    <path
       style="opacity:0.29899998;fill:#ff0000;fill-opacity:1;stroke:#ff0000;stroke-width:0.17607199px;stroke-linecap:butt;stroke-linejoin:miter;stroke-opacity:1"
       d="m 182.73481,19.24664 c 1.67847,1.015148 4.00811,1.586185 6.84906,1.030559 1.63816,-0.320388 3.46454,-0.600124 5.54446,-3.667577 0.63503,-0.936523 0.57166,-1.840779 -0.58705,-4.122233 -0.92242,-1.816163 -1.7169,-5.3055902 -10.37142,-3.5463338 -5.01496,1.01942 -5.67416,2.2842918 -4.95741,4.5768928 0.61819,1.977389 1.11431,4.272271 3.52236,5.728692 z"
       id="path4485-5-0-4"
       inkscape:connector-curvature="0"
       sodipodi:nodetypes="sssssss" />
    <path
       style="opacity:0.29899998;fill:#fffe00;fill-opacity:1;stroke:#fffd00;stroke-width:0.15366668px;stroke-linecap:butt;stroke-linejoin:miter;stroke-opacity:1"
       d="m 189.115,13.941383 c 1.721,-0.719483 3.38288,-2.036732 4.3236,-4.1191838 0.54244,-1.200792 1.21439,-2.5100942 -0.4046,-5.0464639 -0.49429,-0.7743848 -1.31032,-1.0765049 -3.86937,-1.1808912 -2.03715,-0.083083 -13.72579,0.1961031 -8.2695,5.4824881 1.62471,1.5741148 0.76482,3.5482048 1.48727,5.0055908 0.731,1.474625 4.26353,0.890671 6.7326,-0.14154 z"
       id="path4485-5-0-4-0"
       inkscape:connector-curvature="0"
       sodipodi:nodetypes="sssssss" />
    <path
       style="opacity:1;fill:#000000;fill-opacity:1;fill-rule:nonzero;stroke:none;stroke-width:0.26499999;stroke-miterlimit:4;stroke-dasharray:none;stroke-dashoffset:0;stroke-opacity:1"
       id="path4504-4-0"
       sodipodi:type="arc"
       sodipodi:cx="173.32123"
       sodipodi:cy="35.233879"
       sodipodi:rx="0.63476509"
       sodipodi:ry="0.46772167"
       sodipodi:start="0"
       sodipodi:end="6.2788278"
       d="m 173.95599,35.233879 a 0.63476509,0.46772167 0 0 1 -0.63407,0.467721 0.63476509,0.46772167 0 0 1 -0.63546,-0.466702 0.63476509,0.46772167 0 0 1 0.63269,-0.468738 0.63476509,0.46772167 0 0 1 0.63684,0.465681 l -0.63476,0.002 z" />
    <path
       style="opacity:1;fill:#000000;fill-opacity:1;fill-rule:nonzero;stroke:none;stroke-width:0.26499999;stroke-miterlimit:4;stroke-dasharray:none;stroke-dashoffset:0;stroke-opacity:1"
       id="path4504-3-7-3"
       sodipodi:type="arc"
       sodipodi:cx="190.19667"
       sodipodi:cy="35.1124"
       sodipodi:rx="0.63476509"
       sodipodi:ry="0.46772167"
       sodipodi:start="0"
       sodipodi:end="6.2788278"
       d="m 190.83144,35.1124 a 0.63476509,0.46772167 0 0 1 -0.63408,0.467721 0.63476509,0.46772167 0 0 1 -0.63545,-0.466702 0.63476509,0.46772167 0 0 1 0.63269,-0.468738 0.63476509,0.46772167 0 0 1 0.63683,0.465681 l -0.63476,0.002 z" />
    <path
       style="fill:none;stroke:#000000;stroke-width:0.26458332px;stroke-linecap:butt;stroke-linejoin:miter;stroke-opacity:1"
       d="m 173.40117,35.220543 16.77116,-0.02698"
       id="path4545-3"
       inkscape:connector-curvature="0"
       sodipodi:nodetypes="cc" />
    <path
       style="opacity:1;fill:#000000;fill-opacity:1;fill-rule:nonzero;stroke:none;stroke-width:0.26499999;stroke-miterlimit:4;stroke-dasharray:none;stroke-dashoffset:0;stroke-opacity:1"
       id="path4504-3-7-5"
       sodipodi:type="arc"
       sodipodi:cx="182.64632"
       sodipodi:cy="24.822523"
       sodipodi:rx="0.63476509"
       sodipodi:ry="0.46772167"
       sodipodi:start="0"
       sodipodi:end="6.2788278"
       d="m 183.28108,24.822523 a 0.63476509,0.46772167 0 0 1 -0.63407,0.467722 0.63476509,0.46772167 0 0 1 -0.63546,-0.466703 0.63476509,0.46772167 0 0 1 0.63269,-0.468738 0.63476509,0.46772167 0 0 1 0.63684,0.465681 l -0.63476,0.002 z" />
    <path
       style="fill:none;stroke:#000000;stroke-width:0.26458332px;stroke-linecap:butt;stroke-linejoin:miter;stroke-opacity:1"
       d="m 173.20071,35.220544 9.35444,-10.316857"
       id="path4545-5"
       inkscape:connector-curvature="0"
       sodipodi:nodetypes="cc" />
    <path
       style="fill:none;stroke:#000000;stroke-width:0.26458332px;stroke-linecap:butt;stroke-linejoin:miter;stroke-opacity:1"
       d="m 182.69441,24.829935 7.48355,10.262895"
       id="path4545-5-3"
       inkscape:connector-curvature="0"
       sodipodi:nodetypes="cc" />
    <path
       style="opacity:0.29899998;fill:#090000;fill-opacity:1;fill-rule:nonzero;stroke:none;stroke-width:0.06692261;stroke-miterlimit:4;stroke-dasharray:none;stroke-dashoffset:0;stroke-opacity:1"
       d="m 173.84072,34.943551 c -0.0639,-0.07705 0.72092,-0.975992 4.24409,-4.860964 4.03697,-4.451533 4.33693,-4.766429 4.54031,-4.766429 0.21126,0 0.32058,0.140912 3.65462,4.710625 3.29252,4.512818 3.43277,4.716939 3.33991,4.860965 l -0.0969,0.150339 h -7.80177 c -6.6446,0 -7.81341,-0.01402 -7.88023,-0.09454 z"
       id="path4636"
       inkscape:connector-curvature="0" />
    <path
       style="opacity:0.29899998;fill:#0000f9;fill-opacity:1;stroke:#0000fa;stroke-width:0.20750639px;stroke-linecap:butt;stroke-linejoin:miter;stroke-opacity:1"
       d="m 169.64167,50.108872 c -1.3719,1.725038 -2.14361,4.11934 -1.39272,7.039134 0.43297,1.683626 0.81102,3.560701 4.95647,5.698346 1.26564,0.652644 8.95475,0.144037 9.16167,-3.154693 0.0921,-1.467722 -6.06286,-3.407812 -6.16868,-5.41484 -0.1298,-2.46187 3.05505,-5.689882 1.18519,-7.788073 -1.82749,-2.050654 -5.77368,1.145236 -7.74193,3.620126 z"
       id="path4485-56-7-5"
       inkscape:connector-curvature="0"
       sodipodi:nodetypes="sssssss" />
    <path
       style="opacity:0.29899998;fill:#ff0000;fill-opacity:1;stroke:#ff0000;stroke-width:0.17607199px;stroke-linecap:butt;stroke-linejoin:miter;stroke-opacity:1"
       d="m 181.31286,60.807322 c 1.85527,0.637002 5.52001,0.452256 7.27428,0.132866 1.6422,-0.298988 4.07875,-1.167089 5.11924,-2.769884 0.61611,-0.949077 0.28747,-2.223902 -0.39806,-4.689197 -0.54445,-1.957904 -3.18156,-5.400085 -7.11138,-5.436215 -5.11731,-0.04705 -7.39443,8.776656 -6.98903,11.144229 0.19297,1.126943 1.3033,1.342956 2.10495,1.618201 z"
       id="path4485-5-0-4-2"
       inkscape:connector-curvature="0"
       sodipodi:nodetypes="sssssss" />
    <path
       style="opacity:0.29899998;fill:#fffe00;fill-opacity:1;stroke:#fffd00;stroke-width:0.17607199px;stroke-linecap:butt;stroke-linejoin:miter;stroke-opacity:1"
       d="m 186.75402,53.295551 c 1.71838,-0.946024 3.37773,-2.678033 4.31702,-5.416182 0.54162,-1.578882 -0.17568,-3.041526 -1.82139,-4.178587 -1.37746,-0.951716 -1.48599,-1.39455 -3.769,-1.694456 -11.17906,-1.468533 -16.82322,0.305096 -11.37522,7.255993 1.62224,2.069752 5.20487,2.303069 5.92622,4.219339 0.72989,1.938935 4.25705,1.171114 6.72237,-0.186107 z"
       id="path4485-5-0-4-0-8"
       inkscape:connector-curvature="0"
       sodipodi:nodetypes="sssssss" />
    <path
       style="opacity:1;fill:#000000;fill-opacity:1;fill-rule:nonzero;stroke:none;stroke-width:0.26499999;stroke-miterlimit:4;stroke-dasharray:none;stroke-dashoffset:0;stroke-opacity:1"
       id="path4504-4-0-9"
       sodipodi:type="arc"
       sodipodi:cx="173.10201"
       sodipodi:cy="75.32457"
       sodipodi:rx="0.63476509"
       sodipodi:ry="0.46772167"
       sodipodi:start="0"
       sodipodi:end="6.2788278"
       d="m 173.73677,75.32457 a 0.63476509,0.46772167 0 0 1 -0.63407,0.467721 0.63476509,0.46772167 0 0 1 -0.63546,-0.466702 0.63476509,0.46772167 0 0 1 0.63269,-0.468738 0.63476509,0.46772167 0 0 1 0.63683,0.465681 l -0.63475,0.002 z" />
    <path
       style="opacity:1;fill:#000000;fill-opacity:1;fill-rule:nonzero;stroke:none;stroke-width:0.26499999;stroke-miterlimit:4;stroke-dasharray:none;stroke-dashoffset:0;stroke-opacity:1"
       id="path4504-3-7-3-9"
       sodipodi:type="arc"
       sodipodi:cx="189.97743"
       sodipodi:cy="75.203094"
       sodipodi:rx="0.63476509"
       sodipodi:ry="0.46772167"
       sodipodi:start="0"
       sodipodi:end="6.2788278"
       d="m 190.6122,75.203094 a 0.63476509,0.46772167 0 0 1 -0.63408,0.467722 0.63476509,0.46772167 0 0 1 -0.63545,-0.466702 0.63476509,0.46772167 0 0 1 0.63269,-0.468739 0.63476509,0.46772167 0 0 1 0.63683,0.465681 l -0.63476,0.002 z" />
    <path
       style="fill:none;stroke:#000000;stroke-width:0.26458332px;stroke-linecap:butt;stroke-linejoin:miter;stroke-opacity:1"
       d="m 173.18193,75.311242 16.77116,-0.02698"
       id="path4545-3-9"
       inkscape:connector-curvature="0"
       sodipodi:nodetypes="cc" />
    <path
       style="opacity:1;fill:#000000;fill-opacity:1;fill-rule:nonzero;stroke:none;stroke-width:0.26499999;stroke-miterlimit:4;stroke-dasharray:none;stroke-dashoffset:0;stroke-opacity:1"
       id="path4504-3-7-5-7"
       sodipodi:type="arc"
       sodipodi:cx="182.42708"
       sodipodi:cy="64.913216"
       sodipodi:rx="0.63476509"
       sodipodi:ry="0.46772167"
       sodipodi:start="0"
       sodipodi:end="6.2788278"
       d="m 183.06184,64.913216 a 0.63476509,0.46772167 0 0 1 -0.63407,0.467721 0.63476509,0.46772167 0 0 1 -0.63546,-0.466702 0.63476509,0.46772167 0 0 1 0.63269,-0.468739 0.63476509,0.46772167 0 0 1 0.63684,0.465682 l -0.63476,0.002 z" />
    <path
       style="fill:none;stroke:#000000;stroke-width:0.26458332px;stroke-linecap:butt;stroke-linejoin:miter;stroke-opacity:1"
       d="m 172.98147,75.311245 9.35444,-10.316858"
       id="path4545-5-6"
       inkscape:connector-curvature="0"
       sodipodi:nodetypes="cc" />
    <path
       style="fill:none;stroke:#000000;stroke-width:0.26458332px;stroke-linecap:butt;stroke-linejoin:miter;stroke-opacity:1"
       d="m 182.47517,64.920634 7.48355,10.262897"
       id="path4545-5-3-6"
       inkscape:connector-curvature="0"
       sodipodi:nodetypes="cc" />
    <path
       style="opacity:0.29899998;fill:#0000f9;fill-opacity:1;stroke:#0000fa;stroke-width:0.20750639px;stroke-linecap:butt;stroke-linejoin:miter;stroke-opacity:1"
       d="m 97.861475,46.514163 c -1.3719,1.725037 -2.14361,4.119339 -1.39272,7.039134 0.43297,1.683625 0.81102,3.5607 4.956475,5.698345 1.26564,0.652644 2.48768,0.587525 5.57089,-0.603354 2.45442,-0.948004 7.17013,-1.764547 4.79263,-10.659259 -1.37768,-5.154138 -3.08707,-5.831623 -6.18535,-5.094993 -2.6723,0.635352 -5.773675,1.145236 -7.741925,3.620127 z"
       id="path4485-56-7-1"
       inkscape:connector-curvature="0"
       sodipodi:nodetypes="sssssss" />
    <path
       style="opacity:0.29899998;fill:#ff0000;fill-opacity:1;stroke:#ff0000;stroke-width:0.17607199px;stroke-linecap:butt;stroke-linejoin:miter;stroke-opacity:1"
       d="m 109.53266,57.212612 c 1.67847,1.015148 4.00811,1.586185 6.84907,1.030559 1.63816,-0.320388 3.46454,-0.600124 5.54446,-3.667577 0.63503,-0.936523 0.57166,-1.840779 -0.58705,-4.122233 -0.92242,-1.816163 -1.7169,-5.305591 -10.37143,-3.546334 -5.01496,1.01942 -5.67415,2.284292 -4.95741,4.576893 0.61819,1.977389 1.11431,4.272271 3.52236,5.728692 z"
       id="path4485-5-0-4-05"
       inkscape:connector-curvature="0"
       sodipodi:nodetypes="sssssss" />
    <path
       style="opacity:0.29899998;fill:#fffe00;fill-opacity:1;stroke:#fffd00;stroke-width:0.17607199px;stroke-linecap:butt;stroke-linejoin:miter;stroke-opacity:1"
       d="m 115.90927,51.571728 c 1.71838,-0.946024 3.37773,-2.678033 4.31702,-5.416181 0.54162,-1.578883 1.21255,-3.300442 -0.40398,-6.635433 -0.49354,-1.018213 -1.30833,-1.415461 -3.86349,-1.552716 -2.03406,-0.109242 -13.70492,0.25785 -8.25693,7.208746 1.62224,2.069754 0.76365,4.665421 1.485,6.581691 0.72989,1.938936 4.25705,1.171114 6.72238,-0.186107 z"
       id="path4485-5-0-4-0-0"
       inkscape:connector-curvature="0"
       sodipodi:nodetypes="sssssss" />
    <path
       style="opacity:1;fill:#000000;fill-opacity:1;fill-rule:nonzero;stroke:none;stroke-width:0.26499999;stroke-miterlimit:4;stroke-dasharray:none;stroke-dashoffset:0;stroke-opacity:1"
       id="path4504-4-0-7"
       sodipodi:type="arc"
       sodipodi:cx="100.11909"
       sodipodi:cy="73.199844"
       sodipodi:rx="0.63476509"
       sodipodi:ry="0.46772167"
       sodipodi:start="0"
       sodipodi:end="6.2788278"
       d="m 100.75385,73.199844 a 0.63476509,0.46772167 0 0 1 -0.63407,0.467722 0.63476509,0.46772167 0 0 1 -0.635456,-0.466703 0.63476509,0.46772167 0 0 1 0.632686,-0.468738 0.63476509,0.46772167 0 0 1 0.63684,0.465681 l -0.63476,0.002 z" />
    <path
       style="opacity:1;fill:#000000;fill-opacity:1;fill-rule:nonzero;stroke:none;stroke-width:0.26499999;stroke-miterlimit:4;stroke-dasharray:none;stroke-dashoffset:0;stroke-opacity:1"
       id="path4504-3-7-3-4"
       sodipodi:type="arc"
       sodipodi:cx="116.99454"
       sodipodi:cy="73.078369"
       sodipodi:rx="0.63476509"
       sodipodi:ry="0.46772167"
       sodipodi:start="0"
       sodipodi:end="6.2788278"
       d="m 117.6293,73.078369 a 0.63476509,0.46772167 0 0 1 -0.63407,0.467722 0.63476509,0.46772167 0 0 1 -0.63546,-0.466703 0.63476509,0.46772167 0 0 1 0.63269,-0.468738 0.63476509,0.46772167 0 0 1 0.63684,0.465681 l -0.63476,0.002 z" />
    <path
       style="fill:none;stroke:#000000;stroke-width:0.26458332px;stroke-linecap:butt;stroke-linejoin:miter;stroke-opacity:1"
       d="m 100.19903,73.186517 16.77116,-0.02698"
       id="path4545-3-5"
       inkscape:connector-curvature="0"
       sodipodi:nodetypes="cc" />
    <path
       style="opacity:1;fill:#000000;fill-opacity:1;fill-rule:nonzero;stroke:none;stroke-width:0.26499999;stroke-miterlimit:4;stroke-dasharray:none;stroke-dashoffset:0;stroke-opacity:1"
       id="path4504-3-7-5-8"
       sodipodi:type="arc"
       sodipodi:cx="109.44418"
       sodipodi:cy="62.788498"
       sodipodi:rx="0.63476509"
       sodipodi:ry="0.46772167"
       sodipodi:start="0"
       sodipodi:end="6.2788278"
       d="m 110.07895,62.788498 a 0.63476509,0.46772167 0 0 1 -0.63408,0.467721 0.63476509,0.46772167 0 0 1 -0.63545,-0.466702 0.63476509,0.46772167 0 0 1 0.63269,-0.468738 0.63476509,0.46772167 0 0 1 0.63683,0.465681 l -0.63476,0.002 z" />
    <path
       style="fill:none;stroke:#000000;stroke-width:0.26458332px;stroke-linecap:butt;stroke-linejoin:miter;stroke-opacity:1"
       d="M 99.998565,73.186517 109.353,62.869659"
       id="path4545-5-66"
       inkscape:connector-curvature="0"
       sodipodi:nodetypes="cc" />
    <path
       style="fill:none;stroke:#000000;stroke-width:0.26458332px;stroke-linecap:butt;stroke-linejoin:miter;stroke-opacity:1"
       d="m 109.49226,62.795907 7.48356,10.262895"
       id="path4545-5-3-3"
       inkscape:connector-curvature="0"
       sodipodi:nodetypes="cc" />
    <path
       style="opacity:0.29899998;fill:#090000;fill-opacity:1;fill-rule:nonzero;stroke:none;stroke-width:0.06692261;stroke-miterlimit:4;stroke-dasharray:none;stroke-dashoffset:0;stroke-opacity:1"
       d="m 100.63858,72.909524 c -0.0639,-0.07705 0.72092,-0.975992 4.24409,-4.860964 4.03696,-4.451534 4.33692,-4.76643 4.5403,-4.76643 0.21126,0 0.32058,0.140912 3.65462,4.710626 3.29253,4.512818 3.43278,4.716939 3.33992,4.860965 l -0.0969,0.150339 h -7.80178 c -6.64459,0 -7.8134,-0.01402 -7.88022,-0.09454 z"
       id="path4636-0"
       inkscape:connector-curvature="0" />
    <path
       style="opacity:0.29899998;fill:#00ff00;fill-opacity:1;stroke:#00fd00;stroke-width:0.17607199px;stroke-linecap:butt;stroke-linejoin:miter;stroke-opacity:1"
       d="m 98.980081,43.4165 c -0.03991,1.961172 0.630378,4.264218 2.532039,6.44674 1.09655,1.258494 2.25199,2.700317 5.94844,2.967854 1.12857,0.08169 1.88,-0.425317 3.27644,-2.569516 1.11163,-1.706921 3.73634,-4.139675 -2.1145,-10.755081 -3.39032,-3.833372 -4.81533,-3.771817 -6.44241,-2.004796 -1.40337,1.524063 -3.142737,3.101156 -3.200009,5.914799 z"
       id="path4485-5-0-4-05-6"
       inkscape:connector-curvature="0"
       sodipodi:nodetypes="sssssss" />
    <path
       style="opacity:1;fill:#000000;fill-opacity:1;fill-rule:nonzero;stroke:none;stroke-width:0.26499999;stroke-miterlimit:4;stroke-dasharray:none;stroke-dashoffset:0;stroke-opacity:1"
       id="path4504-3-7-3-4-7"
       sodipodi:type="arc"
       sodipodi:cx="121.47137"
       sodipodi:cy="67.392548"
       sodipodi:rx="0.63476509"
       sodipodi:ry="0.46772167"
       sodipodi:start="0"
       sodipodi:end="6.2788278"
       d="m 122.10613,67.392548 a 0.63476509,0.46772167 0 0 1 -0.63407,0.467721 0.63476509,0.46772167 0 0 1 -0.63546,-0.466702 0.63476509,0.46772167 0 0 1 0.63269,-0.468739 0.63476509,0.46772167 0 0 1 0.63684,0.465682 l -0.63476,0.002 z" />
    <path
       style="fill:none;stroke:#000000;stroke-width:0.26458332px;stroke-linecap:butt;stroke-linejoin:miter;stroke-opacity:1"
       d="m 116.92779,72.885063 4.6104,-5.506007"
       id="path4545-5-3-3-3"
       inkscape:connector-curvature="0"
       sodipodi:nodetypes="cc" />
    <path
       style="fill:none;stroke:#000000;stroke-width:0.26458332px;stroke-linecap:butt;stroke-linejoin:miter;stroke-opacity:1"
       d="m 109.51104,62.795638 12.02715,4.650235"
       id="path4545-5-3-3-38"
       inkscape:connector-curvature="0"
       sodipodi:nodetypes="cc" />
    <path
       style="fill:none;stroke:#000000;stroke-width:0.26499999;stroke-linecap:butt;stroke-linejoin:miter;stroke-miterlimit:4;stroke-dasharray:0.79499996, 0.79499996;stroke-dashoffset:0;stroke-opacity:1"
       d="m 100.0898,73.152332 21.44839,-5.773276"
       id="path4545-5-3-3-5"
       inkscape:connector-curvature="0"
       sodipodi:nodetypes="cc" />
    <path
       style="opacity:0.29899998;fill:#000500;fill-opacity:1;fill-rule:nonzero;stroke:#00fd00;stroke-width:0.06692261;stroke-miterlimit:4;stroke-dasharray:0.20076781, 0.20076781;stroke-dashoffset:0;stroke-opacity:1"
       d="m 115.68929,71.013218 c -0.79814,-1.098201 -1.12213,-1.593334 -1.05237,-1.608288 0.10895,-0.02336 0.12283,-0.07708 0.0613,-0.237321 -0.0267,-0.0697 -0.0967,-0.09239 -0.21715,-0.07044 -0.16709,0.03043 -0.30616,-0.14442 -2.32716,-2.92599 -1.18219,-1.627095 -2.14121,-2.966583 -2.13116,-2.976637 0.0388,-0.03883 10.79004,4.148532 10.76316,4.192016 -0.0156,0.02532 -0.19522,0.08604 -0.39905,0.134938 -0.3187,0.07646 -0.37061,0.11081 -0.37061,0.245282 0,0.191008 0.10529,0.196418 0.58664,0.03015 0.19402,-0.06702 0.36398,-0.103624 0.37767,-0.08134 0.0338,0.05508 -3.9872,4.875035 -4.07132,4.880211 -0.0368,0.0024 -0.58574,-0.709899 -1.21999,-1.582574 z m 0.5842,-2.112743 c -5.3e-4,-0.04141 -0.0262,-0.115009 -0.057,-0.163547 -0.0857,-0.135252 -0.81062,0.08732 -0.81062,0.248899 0,0.06477 0.0164,0.134112 0.0363,0.154101 0.0621,0.06208 0.83234,-0.1598 0.83126,-0.239453 z m 1.19864,-0.253817 c 0.33467,-0.07725 0.39036,-0.13847 0.28174,-0.309721 -0.0455,-0.07176 -0.11983,-0.07107 -0.41658,0.0039 -0.28575,0.07216 -0.36565,0.121806 -0.38254,0.237675 -0.025,0.171061 0.0365,0.179163 0.51738,0.06817 z m 1.53845,-0.413504 c 0.31728,-0.09486 0.37069,-0.153906 0.27545,-0.30453 -0.0517,-0.08177 -0.10875,-0.08172 -0.41652,2.64e-4 -0.28313,0.07551 -0.36101,0.126005 -0.37797,0.245084 -0.0254,0.178189 0.0804,0.190227 0.51904,0.05909 z"
       id="path4824"
       inkscape:connector-curvature="0" />
    <path
       style="opacity:0.29899998;fill:#0000f9;fill-opacity:1;stroke:#0000fa;stroke-width:0.20750639px;stroke-linecap:butt;stroke-linejoin:miter;stroke-opacity:1"
       d="m 27.639048,44.198499 c -1.3719,1.725037 -2.14361,4.119339 -1.39272,7.039133 0.43297,1.683626 0.81102,3.5607 4.95647,5.698346 1.26564,0.652644 2.48768,0.587525 5.5709,-0.603354 2.45442,-0.948004 6.957891,-4.579586 4.79263,-10.659259 -0.87546,-2.458137 -4.504481,-4.981177 -7.602761,-4.244547 -2.67231,0.635352 -4.356269,0.29479 -6.324519,2.769681 z"
       id="path4485-56-7-8"
       inkscape:connector-curvature="0"
       sodipodi:nodetypes="sssssss" />
    <path
       style="opacity:0.29899998;fill:#ff0000;fill-opacity:1;stroke:#ff0000;stroke-width:0.17607199px;stroke-linecap:butt;stroke-linejoin:miter;stroke-opacity:1"
       d="m 39.310238,54.896948 c 1.67847,1.015148 4.00811,1.586184 6.84906,1.030559 1.63816,-0.320388 3.748022,2.092955 5.827942,-0.974497 0.635031,-0.936523 -4.552798,-4.319325 -0.870532,-6.815313 2.444041,-1.656669 -7.883413,-12.020148 -10.37142,-3.546334 -0.715481,2.436831 -3.689785,2.284292 -4.95741,4.576893 -1.002486,1.813076 1.11431,4.272271 3.52236,5.728692 z"
       id="path4485-5-0-4-02"
       inkscape:connector-curvature="0"
       sodipodi:nodetypes="sssssss" />
    <path
       style="opacity:0.29899998;fill:#fffe00;fill-opacity:1;stroke:#fffd00;stroke-width:0.15366668px;stroke-linecap:butt;stroke-linejoin:miter;stroke-opacity:1"
       d="m 47.769297,47.938044 c 0.823307,-0.483248 1.776481,-1.091791 2.244731,-2.465537 0.425105,-1.247168 1.21439,-2.510094 -0.4046,-5.046464 -0.49429,-0.774385 -1.830037,-0.462294 -4.389087,-0.56668 -2.03715,-0.08308 -13.206073,-0.418108 -7.749783,4.868277 1.62471,1.574115 2.658698,3.138443 4.085856,3.918909 1.486953,0.813166 3.904934,0.646168 6.212883,-0.708505 z"
       id="path4485-5-0-4-0-1"
       inkscape:connector-curvature="0"
       sodipodi:nodetypes="sssssss" />
    <path
       style="opacity:1;fill:#000000;fill-opacity:1;fill-rule:nonzero;stroke:none;stroke-width:0.26499999;stroke-miterlimit:4;stroke-dasharray:none;stroke-dashoffset:0;stroke-opacity:1"
       id="path4504-4-0-0"
       sodipodi:type="arc"
       sodipodi:cx="29.89666"
       sodipodi:cy="70.884186"
       sodipodi:rx="0.63476509"
       sodipodi:ry="0.46772167"
       sodipodi:start="0"
       sodipodi:end="6.2788278"
       d="m 30.531425,70.884186 a 0.63476509,0.46772167 0 0 1 -0.634074,0.467721 0.63476509,0.46772167 0 0 1 -0.635455,-0.466702 0.63476509,0.46772167 0 0 1 0.632689,-0.468738 0.63476509,0.46772167 0 0 1 0.636834,0.465681 l -0.634759,0.002 z" />
    <path
       style="opacity:1;fill:#000000;fill-opacity:1;fill-rule:nonzero;stroke:none;stroke-width:0.26499999;stroke-miterlimit:4;stroke-dasharray:none;stroke-dashoffset:0;stroke-opacity:1"
       id="path4504-3-7-3-7"
       sodipodi:type="arc"
       sodipodi:cx="46.772102"
       sodipodi:cy="70.762711"
       sodipodi:rx="0.63476509"
       sodipodi:ry="0.46772167"
       sodipodi:start="0"
       sodipodi:end="6.2788278"
       d="m 47.406867,70.762711 a 0.63476509,0.46772167 0 0 1 -0.634073,0.467721 0.63476509,0.46772167 0 0 1 -0.635455,-0.466702 0.63476509,0.46772167 0 0 1 0.632689,-0.468739 0.63476509,0.46772167 0 0 1 0.636833,0.465681 l -0.634759,0.002 z" />
    <path
       style="fill:none;stroke:#000000;stroke-width:0.26458332px;stroke-linecap:butt;stroke-linejoin:miter;stroke-opacity:1"
       d="m 29.976598,70.87085 16.77116,-0.02698"
       id="path4545-3-2"
       inkscape:connector-curvature="0"
       sodipodi:nodetypes="cc" />
    <path
       style="opacity:1;fill:#000000;fill-opacity:1;fill-rule:nonzero;stroke:none;stroke-width:0.26499999;stroke-miterlimit:4;stroke-dasharray:none;stroke-dashoffset:0;stroke-opacity:1"
       id="path4504-3-7-5-70"
       sodipodi:type="arc"
       sodipodi:cx="39.221745"
       sodipodi:cy="60.472836"
       sodipodi:rx="0.63476509"
       sodipodi:ry="0.46772167"
       sodipodi:start="0"
       sodipodi:end="6.2788278"
       d="m 39.85651,60.472836 a 0.63476509,0.46772167 0 0 1 -0.634074,0.467721 0.63476509,0.46772167 0 0 1 -0.635455,-0.466702 0.63476509,0.46772167 0 0 1 0.632689,-0.468739 0.63476509,0.46772167 0 0 1 0.636834,0.465681 l -0.634759,0.002 z" />
    <path
       style="fill:none;stroke:#000000;stroke-width:0.26458332px;stroke-linecap:butt;stroke-linejoin:miter;stroke-opacity:1"
       d="m 29.776138,70.870853 9.35444,-10.316858"
       id="path4545-5-4"
       inkscape:connector-curvature="0"
       sodipodi:nodetypes="cc" />
    <path
       style="fill:none;stroke:#000000;stroke-width:0.26458332px;stroke-linecap:butt;stroke-linejoin:miter;stroke-opacity:1"
       d="m 39.269838,60.480243 7.48355,10.262895"
       id="path4545-5-3-5"
       inkscape:connector-curvature="0"
       sodipodi:nodetypes="cc" />
    <path
       style="opacity:0.29899998;fill:#090000;fill-opacity:1;fill-rule:nonzero;stroke:none;stroke-width:0.06692261;stroke-miterlimit:4;stroke-dasharray:none;stroke-dashoffset:0;stroke-opacity:1"
       d="m 30.416148,70.593858 c -0.0639,-0.07705 0.72092,-0.97599 4.24409,-4.860962 4.03697,-4.451534 4.33693,-4.76643 4.54031,-4.76643 0.21126,0 0.32058,0.140912 3.65462,4.710624 3.29252,4.512818 3.43277,4.716939 3.33991,4.860964 l -0.0969,0.150342 h -7.80177 c -6.6446,0 -7.81341,-0.01402 -7.88023,-0.09454 z"
       id="path4636-7"
       inkscape:connector-curvature="0" />
    <path
       style="opacity:0.29899998;fill:#00ff00;fill-opacity:1;stroke:#00fd00;stroke-width:0.17607199px;stroke-linecap:butt;stroke-linejoin:miter;stroke-opacity:1"
       d="m 21.648575,56.588475 c 1.938307,-0.301251 4.089971,-1.361275 5.909115,-3.613038 1.048962,-1.29842 2.268239,-2.686684 1.88983,-6.373431 -0.115525,-1.125611 -0.745314,-1.777584 -3.099427,-2.780473 -1.874022,-0.798338 -4.755658,-1.565698 -8.429121,3.808236 -2.471868,3.616113 -2.783848,5.869613 -0.761133,7.165131 1.744603,1.117403 1.709893,2.225757 4.490736,1.793575 z"
       id="path4485-5-0-4-05-6-0"
       inkscape:connector-curvature="0"
       sodipodi:nodetypes="sssssss" />
    <path
       style="fill:none;stroke:#000000;stroke-width:0.26458332px;stroke-linecap:butt;stroke-linejoin:miter;stroke-opacity:1"
       d="m 18.095845,66.773757 11.953027,4.046236"
       id="path4545-5-4-4"
       inkscape:connector-curvature="0"
       sodipodi:nodetypes="cc" />
    <path
       style="opacity:1;fill:#000000;fill-opacity:1;fill-rule:nonzero;stroke:none;stroke-width:0.26499999;stroke-miterlimit:4;stroke-dasharray:none;stroke-dashoffset:0;stroke-opacity:1"
       id="path4504-3-7-5-70-4"
       sodipodi:type="arc"
       sodipodi:cx="18.048365"
       sodipodi:cy="66.718002"
       sodipodi:rx="0.63476509"
       sodipodi:ry="0.46772167"
       sodipodi:start="0"
       sodipodi:end="6.2788278"
       d="m 18.68313,66.718002 a 0.63476509,0.46772167 0 0 1 -0.634074,0.467722 0.63476509,0.46772167 0 0 1 -0.635455,-0.466703 0.63476509,0.46772167 0 0 1 0.632689,-0.468738 0.63476509,0.46772167 0 0 1 0.636834,0.465681 l -0.634759,0.002 z" />
  </g>
</svg>
