<?xml version="1.0" encoding="UTF-8" standalone="no"?>
<!-- Created with Inkscape (http://www.inkscape.org/) -->

<svg
   xmlns:dc="http://purl.org/dc/elements/1.1/"
   xmlns:cc="http://creativecommons.org/ns#"
   xmlns:rdf="http://www.w3.org/1999/02/22-rdf-syntax-ns#"
   xmlns:svg="http://www.w3.org/2000/svg"
   xmlns="http://www.w3.org/2000/svg"
   xmlns:sodipodi="http://sodipodi.sourceforge.net/DTD/sodipodi-0.dtd"
   xmlns:inkscape="http://www.inkscape.org/namespaces/inkscape"
   width="210mm"
   height="297mm"
   viewBox="0 0 210 297"
   version="1.1"
   id="svg8"
   inkscape:version="0.92.1 r15371"
   sodipodi:docname="Nerving9.svg">
  <defs
     id="defs2">
    <marker
       inkscape:stockid="Arrow2Lend"
       orient="auto"
       refY="0.0"
       refX="0.0"
       id="Arrow2Lend"
       style="overflow:visible;"
       inkscape:isstock="true">
      <path
         id="path4512"
         style="fill-rule:evenodd;stroke-width:0.625;stroke-linejoin:round;stroke:#000000;stroke-opacity:1;fill:#000000;fill-opacity:1"
         d="M 8.7185878,4.0337352 L -2.2072895,0.016013256 L 8.7185884,-4.0017078 C 6.9730900,-1.6296469 6.9831476,1.6157441 8.7185878,4.0337352 z "
         transform="scale(1.1) rotate(180) translate(1,0)" />
    </marker>
  </defs>
  <sodipodi:namedview
     id="base"
     pagecolor="#ffffff"
     bordercolor="#666666"
     borderopacity="1.0"
     inkscape:pageopacity="0.0"
     inkscape:pageshadow="2"
     inkscape:zoom="3.959798"
     inkscape:cx="172.04522"
     inkscape:cy="961.74912"
     inkscape:document-units="mm"
     inkscape:current-layer="layer2"
     showgrid="false"
     inkscape:window-width="1920"
     inkscape:window-height="986"
     inkscape:window-x="-11"
     inkscape:window-y="-11"
     inkscape:window-maximized="1"
     inkscape:snap-global="false" />
  <metadata
     id="metadata5">
    <rdf:RDF>
      <cc:Work
         rdf:about="">
        <dc:format>image/svg+xml</dc:format>
        <dc:type
           rdf:resource="http://purl.org/dc/dcmitype/StillImage" />
        <dc:title></dc:title>
      </cc:Work>
    </rdf:RDF>
  </metadata>
  <g
     inkscape:groupmode="layer"
     id="layer2"
     inkscape:label="Layer 2">
    <path
       style="opacity:0.264;fill:#0300c5;fill-opacity:0.99186993;fill-rule:nonzero;stroke:none;stroke-width:0.06692261;stroke-miterlimit:4;stroke-dasharray:none;stroke-dashoffset:0;stroke-opacity:0.61788617"
       d="m 96.76555,81.578275 c -2.20518,-0.182436 -4.01641,-0.557488 -5.84652,-1.210643 -3.3849,-1.208051 -6.67739,-2.989281 -9.04949,-4.895758 -0.71348,-0.573431 -1.81901,-1.639879 -2.14081,-2.065139 l -0.1946,-0.257175 0.11876,-0.945539 c 0.80792,-6.431976 2.67328,-11.034601 5.79897,-14.308397 2.16504,-2.267643 5.00902,-4.003309 8.53377,-5.208119 l 0.89505,-0.30594 0.77539,0.340934 c 2.16201,0.950621 4.65243,2.459863 7.59076,4.600146 2.76449,2.013654 4.58412,3.545555 6.24743,5.259544 1.58413,1.632397 2.62276,3.047714 3.37604,4.600438 1.21257,2.499471 1.36267,4.51871 0.56868,7.650588 -0.34969,1.379355 -0.87382,2.660364 -1.41635,3.461613 -0.39907,0.58937 -1.14937,1.254982 -1.74492,1.547947 -1.12304,0.552455 -4.763,1.311098 -7.89412,1.645301 -1.12658,0.120248 -4.58389,0.175755 -5.61804,0.0902 z"
       id="path4506"
       inkscape:connector-curvature="0" />
    <path
       style="fill:none;stroke:#fe0000;stroke-width:0.26458332px;stroke-linecap:butt;stroke-linejoin:miter;stroke-opacity:1;opacity:0.267"
       d="M 61.405174,57.927409 C 62.387089,48.129815 73.296561,44.079753 84.1899,40.020351"
       id="path5092"
       inkscape:connector-curvature="0"
       sodipodi:nodetypes="cc" />
    <path
       style="fill:none;stroke:#f80000;stroke-width:0.26458332px;stroke-linecap:butt;stroke-linejoin:miter;stroke-opacity:0.99593496;opacity:0.282"
       d="M 96.030559,81.778727 C 101.85185,75.733312 106.60134,68.713108 107.44235,60.533286"
       id="path5094"
       inkscape:connector-curvature="0"
       sodipodi:nodetypes="cc" />
    <path
       style="opacity:0.26700003;fill:#ff0000;fill-opacity:0.99186993;fill-rule:nonzero;stroke:none;stroke-width:0.25293583;stroke-miterlimit:4;stroke-dasharray:none;stroke-dashoffset:0;stroke-opacity:1"
       d="m 296.9416,272.20087 c -5.61015,-9.18115 -12.02695,-18.31775 -17.65624,-25.13993 -3.49943,-4.24098 -12.06907,-12.73286 -15.64311,-15.50116 -9.1677,-7.10092 -18.576,-11.39736 -27.42043,-12.52193 -3.46848,-0.44102 -3.38922,-0.41175 -3.38922,-1.2518 0,-1.43589 1.05941,-6.20408 2.04596,-9.20845 5.72265,-17.42744 21.67657,-31.15526 51.23959,-44.08999 6.77375,-2.96373 26.82953,-10.85425 27.58885,-10.85425 0.14776,0 -0.45302,0.46643 -1.33505,1.03652 -3.51894,2.2744 -6.28595,5.73506 -8.62592,10.78834 -1.73804,3.75337 -2.29118,6.04988 -2.32212,9.64088 -0.0233,2.69808 0.0585,3.40499 0.56296,4.86546 1.22357,3.54266 3.91405,6.46052 7.66138,8.30886 3.65678,1.80368 5.21731,2.12353 18.8963,3.87306 10.82366,1.38433 14.1675,1.9282 18.70442,3.04221 4.40899,1.0826 9.19746,2.62564 8.91398,2.87244 -0.1199,0.1044 -1.46807,0.62297 -2.99593,1.15238 -3.82896,1.32676 -7.98045,3.12806 -11.86929,5.14998 -17.60177,9.15169 -29.04756,22.58067 -35.63666,41.81138 -2.38166,6.95101 -4.47512,16.12168 -5.68156,24.88872 -0.31538,2.29178 -0.65297,4.26249 -0.75022,4.37934 -0.0972,0.11686 -1.1267,-1.34207 -2.28769,-3.24206 z m 6.99196,-42.92086 c 0.76036,-0.76036 0.8908,-2.41059 0.19056,-2.41059 -0.33391,0 -0.36197,-0.0674 -0.12627,-0.30305 0.46049,-0.4605 0.3743,-0.65729 -0.48177,-1.09998 -1.51975,-0.78589 -3.00326,0.22553 -3.00326,2.04755 0,2.05068 2.06831,3.1185 3.42074,1.76607 z"
       id="path5096"
       inkscape:connector-curvature="0"
       transform="scale(0.26458333)" />
    <path
       style="opacity:0.26700003;fill:#ff0000;fill-opacity:0.99186994;fill-rule:nonzero;stroke:none;stroke-width:0.25293583;stroke-miterlimit:4;stroke-dasharray:none;stroke-dashoffset:0;stroke-opacity:1"
       d="m 359.22794,307.53639 c -8.08095,-1.24029 -15.79875,-3.58297 -24.53011,-7.44592 -12.68502,-5.61213 -22.77982,-12.1302 -30.32452,-19.5801 l -3.67834,-3.63213 0.16999,-1.70777 c 1.41397,-14.20499 5.48184,-29.46766 10.52958,-39.50712 0.54626,-1.08647 0.92691,-1.9754 0.84587,-1.9754 -0.081,0 -0.92223,1.6194 -1.86932,3.59866 -4.56695,9.54426 -7.46602,20.14384 -9.53428,34.85926 -0.58351,4.15165 -0.71266,4.69819 -1.03421,4.37665 -0.43065,-0.43066 -0.23714,-2.36208 0.98252,-9.80602 3.58407,-21.87477 10.55183,-37.28764 22.07138,-48.8225 3.69592,-3.70083 6.24474,-5.80853 10.48628,-8.67143 6.12098,-4.13146 12.42498,-7.2556 20.41885,-10.11919 2.99585,-1.07318 3.31973,-1.15288 3.31973,-0.81689 0,0.11353 -0.65344,0.40939 -1.45209,0.65746 -5.16277,1.60364 -13.24352,5.32265 -18.51409,8.52075 -6.83738,4.14882 -13.66482,10.08575 -17.66865,15.36411 l -1.05358,1.38896 1.07477,-1.2627 c 2.42341,-2.84711 8.38511,-8.4889 11.22341,-10.62112 6.91111,-5.19186 14.80196,-9.2949 23.95879,-12.45796 l 3.62969,-1.2538 2.81614,1.22522 c 11.40234,4.96083 27.35555,15.47458 42.50971,28.01546 2.02028,1.67189 1.97907,1.40879 1.06695,6.81147 -3.22626,19.10994 -12.02862,37.6239 -26.90646,56.5923 -3.42237,4.36333 -6.68504,8.18748 -11.15002,13.06885 -3.74399,4.09314 -3.17655,3.84729 -7.38799,3.2009 z M 318.2227,224.65971 c 0.31413,-0.40054 0.3052,-0.40948 -0.0953,-0.0953 -0.24307,0.19063 -0.44195,0.3895 -0.44195,0.44194 0,0.20785 0.20738,0.0741 0.53729,-0.34659 z"
       id="path5098"
       inkscape:connector-curvature="0"
       transform="scale(0.26458333)" />
    <path
       style="fill:none;stroke:#00fe00;stroke-width:0.26458332px;stroke-linecap:butt;stroke-linejoin:miter;stroke-opacity:1;opacity:0.282"
       d="M 74.367744,14.897015 C 62.817763,30.119858 69.669607,38.759934 79.779952,46.234368"
       id="path4509"
       inkscape:connector-curvature="0"
       sodipodi:nodetypes="cc" />
    <path
       style="opacity:0.28200001;fill:#05ff00;fill-opacity:0.99186993;fill-rule:nonzero;stroke:none;stroke-width:0.25293583;stroke-miterlimit:4;stroke-dasharray:none;stroke-dashoffset:0;stroke-opacity:1"
       d="m 282.77339,158.4191 c -6.39337,-6.1754 -9.9594,-10.33841 -13.89046,-16.21576 -4.93745,-7.38204 -7.82972,-14.42967 -9.37932,-22.8547 -0.63719,-3.46435 -0.64066,-12.94083 -0.006,-16.79379 2.24989,-13.662273 8.26501,-26.772378 19.49484,-42.489539 1.21569,-1.701476 2.2859,-3.093592 2.37823,-3.093592 0.28078,0 4.01434,2.927957 7.08933,5.559655 2.59613,2.221869 10.61216,10.20583 22.72843,22.637508 5.81522,5.966597 7.78264,7.039508 12.87945,7.023663 3.33267,-0.01035 4.2182,-0.274574 10.67232,-3.184321 17.6488,-7.956704 33.00187,-12.208229 44.63353,-12.359774 2.33288,-0.03039 3.03539,0.07332 5.84372,0.862692 6.29625,1.769773 12.8447,4.642947 17.51606,7.685279 8.65313,5.635558 16.07295,14.209705 17.27225,19.959379 1.34146,6.43113 -2.68028,12.88776 -10.83253,17.3909 -5.587,3.08616 -18.4582,7.18409 -45.07806,14.35195 -26.05966,7.01702 -35.13983,9.82781 -43.48274,13.46018 -1.74367,0.75917 -2.35084,0.92678 -2.44723,0.67557 -0.14448,-0.3765 -12.49499,4.19759 -23.51801,8.71003 -3.4724,1.42148 -6.59756,2.63877 -6.9448,2.70509 -0.5384,0.10281 -1.264,-0.49052 -4.92885,-4.03042 z m 75.65895,-49.91018 c 0.84163,-0.84163 1.04949,-2.29227 0.32846,-2.29227 -0.34634,0 -0.35803,-0.0623 -0.0756,-0.40262 0.28521,-0.34366 0.24351,-0.47227 -0.28475,-0.87827 -1.18781,-0.91287 -2.57431,-0.501 -3.1781,0.94407 -0.47671,1.14094 -0.0905,2.45667 0.87503,2.98102 1.00206,0.54419 1.51633,0.46668 2.33494,-0.35193 z"
       id="path4511"
       inkscape:connector-curvature="0"
       transform="scale(0.26458333)" />
    <path
       style="opacity:0.28200001;fill:#05ff00;fill-opacity:0.99186994;fill-rule:nonzero;stroke:none;stroke-width:0.25293583;stroke-miterlimit:4;stroke-dasharray:none;stroke-dashoffset:0;stroke-opacity:1"
       d="m 298.43511,171.70709 c -4.89492,-3.76851 -9.96505,-7.97648 -9.84494,-8.17084 0.0641,-0.1037 -0.10947,-0.24766 -0.3857,-0.31989 -0.81756,-0.2138 -0.58304,-0.52446 0.82409,-1.09162 18.62992,-7.50896 28.3125,-11.13973 29.04207,-10.89019 0.38797,0.1327 -1.65137,1.18196 -3.83073,1.97095 -0.89119,0.32263 -1.48508,0.63169 -1.31977,0.6868 0.16531,0.0551 -0.18514,0.44834 -0.77877,0.87386 -2.50315,1.79426 -4.06665,3.38674 -5.62853,5.73286 -2.69439,4.04729 -4.20786,7.69912 -5.09723,12.29901 l -0.20257,1.04773 z m -2.81881,-11.05531 c 3.41676,-1.38173 6.17131,-2.55322 6.12121,-2.60331 -0.10978,-0.10978 -11.36961,4.3922 -12.26751,4.90487 -1.00235,0.57232 -0.43416,0.35955 6.1463,-2.30156 z m 8.62613,-3.45955 c 0.55617,-0.25782 0.72758,-0.39523 0.38091,-0.30536 -0.34666,0.0899 -1.08533,0.37434 -1.6415,0.63216 -0.55616,0.25781 -0.72757,0.39523 -0.3809,0.30536 0.34666,-0.0899 1.08533,-0.37434 1.64149,-0.63216 z m 1.89509,-0.72049 c 0.20835,-0.13464 0.26517,-0.2448 0.12627,-0.2448 -0.1389,0 -0.423,0.11016 -0.63135,0.2448 -0.20834,0.13465 -0.26516,0.24481 -0.12626,0.24481 0.13889,0 0.423,-0.11016 0.63134,-0.24481 z m 2.02031,-0.80022 c 0.26326,-0.16266 0.18624,-0.18254 -0.25254,-0.0652 -0.34724,0.0929 -0.80181,0.2742 -1.01015,0.40292 -0.26327,0.16267 -0.18625,0.18254 0.25253,0.0652 0.34724,-0.0929 0.80181,-0.2742 1.01016,-0.40293 z m 1.26269,-0.46247 c 0.20834,-0.13464 0.26516,-0.2448 0.12627,-0.2448 -0.1389,0 -0.42301,0.11016 -0.63135,0.2448 -0.20834,0.13465 -0.26516,0.24481 -0.12627,0.24481 0.1389,0 0.423,-0.11016 0.63135,-0.24481 z m 2.77792,-1.05276 c 0.26326,-0.16266 0.18624,-0.18254 -0.25254,-0.0652 -0.34724,0.0929 -0.80181,0.2742 -1.01015,0.40292 -0.26327,0.16267 -0.18625,0.18255 0.25253,0.0652 0.34724,-0.0929 0.80181,-0.2742 1.01016,-0.40293 z"
       id="path4513"
       inkscape:connector-curvature="0"
       transform="scale(0.26458333)" />
    <path
       style="fill:none;stroke:#fef600;stroke-width:0.265;stroke-linecap:butt;stroke-linejoin:miter;stroke-opacity:1;opacity:0.394;stroke-miterlimit:4;stroke-dasharray:none"
       d="m 50.848027,35.677221 c 9.21069,5.423673 18.459025,10.702554 29.934185,7.416728"
       id="path5090"
       inkscape:connector-curvature="0"
       sodipodi:nodetypes="cc" />
    <path
       style="opacity:0.394;fill:#ffff00;fill-opacity:0.99186993;fill-rule:nonzero;stroke:none;stroke-width:0.25293583;stroke-miterlimit:4;stroke-dasharray:none;stroke-dashoffset:0;stroke-opacity:1"
       d="m 269.1168,165.68202 c -18.06044,-1.79195 -36.81893,-8.66622 -61.34288,-22.47983 -7.13083,-4.01659 -13.76288,-7.86953 -14.10395,-8.19381 -0.11789,-0.11208 0.34692,-1.0392 1.03292,-2.06026 6.42295,-9.56005 11.52655,-21.12516 20.26611,-45.924363 7.46269,-21.175975 10.54115,-28.043799 14.62733,-32.632479 1.58713,-1.782317 5.37273,-4.87619 8.30389,-6.786557 10.06126,-6.557378 19.08577,-6.249533 31.32,1.06839 1.89106,1.131144 9.37907,6.116815 10.73704,7.148956 0.43296,0.329072 0.29885,0.579585 -2.09852,3.919927 -11.30001,15.744677 -17.50035,29.484718 -19.60467,43.444206 -0.60486,4.01247 -0.60998,11.50634 -0.0105,15.38054 1.31774,8.51609 4.41691,16.3191 9.53065,23.99598 3.70708,5.56517 6.33077,8.68137 12.59901,14.964 l 5.71381,5.72693 -3.16987,1.41292 -3.16987,1.41292 -3.66181,-0.0347 c -2.01399,-0.0191 -5.14989,-0.18233 -6.96868,-0.36279 z M 251.86125,72.143432 c 0.84163,-0.841631 1.04949,-2.292269 0.32846,-2.292269 -0.34634,0 -0.35804,-0.06229 -0.0756,-0.402621 0.28522,-0.343662 0.24352,-0.472277 -0.28475,-0.87827 -1.1878,-0.912872 -2.5743,-0.501008 -3.17809,0.944069 -0.47672,1.140937 -0.0905,2.456663 0.87503,2.981018 1.00206,0.544192 1.51633,0.46668 2.33494,-0.351927 z"
       id="path5093"
       inkscape:connector-curvature="0"
       transform="scale(0.26458333)" />
    <path
       style="opacity:0.394;fill:#ffff00;fill-opacity:0.99186994;fill-rule:nonzero;stroke:none;stroke-width:0.25293583;stroke-miterlimit:4;stroke-dasharray:none;stroke-dashoffset:0;stroke-opacity:1"
       d="m 280.39968,165.97274 c 0.0579,-0.0525 1.40719,-0.67194 2.99849,-1.37655 2.23782,-0.99087 2.97158,-1.2161 3.23896,-0.99419 0.2802,0.23254 0.18659,0.37171 -0.49416,0.73461 -0.46191,0.24625 -0.74897,0.45248 -0.6379,0.45831 0.11107,0.006 0.54966,-0.16923 0.97465,-0.389 0.74908,-0.38737 0.79526,-0.37797 1.51045,0.30723 0.92684,0.88797 0.75361,0.96843 -2.56078,1.18933 l -2.39911,0.15991 0.88389,-0.49159 c 1.16588,-0.64843 0.7629,-0.65456 -0.50508,-0.008 -0.79903,0.40763 -3.39706,0.76126 -3.00941,0.40962 z"
       id="path5095"
       inkscape:connector-curvature="0"
       transform="scale(0.26458333)" />
    <path
       style="opacity:0.394;fill:#ffff00;fill-opacity:0.99186994;fill-rule:nonzero;stroke:none;stroke-width:0.25293583;stroke-miterlimit:4;stroke-dasharray:none;stroke-dashoffset:0;stroke-opacity:1"
       d="m 289.20583,164.06027 c -0.748,-0.68767 -1.30707,-1.30226 -1.24239,-1.36576 0.33485,-0.3287 20.42697,-8.19838 25.95613,-10.16649 4.66599,-1.66086 5.16268,-1.37581 0.74111,0.42532 -1.07644,0.43849 -1.96612,0.92653 -1.97705,1.08454 -0.0109,0.15801 -0.89167,0.9705 -1.95717,1.80553 -1.2581,0.98596 -2.48856,2.26974 -3.50971,3.6618 -0.86483,1.17896 -1.73305,2.32993 -1.92938,2.55772 -0.5296,0.61445 -12.1176,3.24765 -14.29201,3.24765 -0.23625,0 -1.04153,-0.56264 -1.78953,-1.25031 z m 6.73794,-3.48057 c 3.2545,-1.32423 5.865,-2.45997 5.8011,-2.52387 -0.13684,-0.13685 -11.3515,4.31627 -12.27487,4.8741 -0.62207,0.37581 -0.62262,0.37903 -0.0374,0.21943 0.32665,-0.0891 3.25669,-1.24543 6.5112,-2.56966 z m 8.29972,-3.37509 c 0.55558,-0.26072 0.72604,-0.40609 0.3788,-0.32303 -0.34724,0.0831 -1.08591,0.36434 -1.6415,0.62506 -0.55558,0.26073 -0.72604,0.40609 -0.3788,0.32303 0.34724,-0.083 1.08591,-0.36433 1.6415,-0.62506 z m 2.0203,-0.73287 c 0.0858,-0.13889 -0.0144,-0.25253 -0.22273,-0.25253 -0.20834,0 -0.44904,0.11364 -0.53488,0.25253 -0.0858,0.1389 0.0144,0.25254 0.22273,0.25254 0.20834,0 0.44904,-0.11364 0.53488,-0.25254 z m 1.6415,-0.63134 c 0.36485,-0.20857 0.47145,-0.36091 0.25254,-0.36091 -0.20835,0 -0.66292,0.16241 -1.01016,0.36091 -0.36485,0.20857 -0.47145,0.36091 -0.25253,0.36091 0.20834,0 0.66291,-0.16241 1.01015,-0.36091 z m 1.6415,-0.63135 c 0.0858,-0.13889 -0.0144,-0.25254 -0.22273,-0.25254 -0.20835,0 -0.44905,0.11365 -0.53489,0.25254 -0.0858,0.1389 0.0144,0.25254 0.22273,0.25254 0.20835,0 0.44904,-0.11364 0.53489,-0.25254 z m 2.39911,-0.88388 c 0.36485,-0.20857 0.47145,-0.36091 0.25254,-0.36091 -0.20835,0 -0.66292,0.16241 -1.01016,0.36091 -0.36485,0.20857 -0.47145,0.36091 -0.25253,0.36091 0.20834,0 0.66291,-0.16241 1.01015,-0.36091 z"
       id="path5097"
       inkscape:connector-curvature="0"
       transform="scale(0.26458333)" />
    <path
       style="fill:none;stroke:#fbfc00;stroke-width:0.26458332px;stroke-linecap:butt;stroke-linejoin:miter;stroke-opacity:1;opacity:0.342"
       d="m 88.332576,23.650092 c 2.708943,2.194976 5.111429,9.666247 1.202714,14.499371 v 0"
       id="path5099"
       inkscape:connector-curvature="0"
       sodipodi:nodetypes="ccc" />
    <path
       style="opacity:0.34200003;fill:#ffff00;fill-opacity:0.99186994;fill-rule:nonzero;stroke:#fbfc00;stroke-width:0.25293583;stroke-miterlimit:4;stroke-dasharray:none;stroke-dashoffset:0;stroke-opacity:1"
       d="m 279.99862,156.91369 c -7.55461,-7.62448 -10.80294,-11.72219 -14.7262,-18.57679 -3.72787,-6.51322 -6.02953,-13.34398 -7.01398,-20.81581 -0.49641,-3.76763 -0.3655,-11.29561 0.26685,-15.34505 1.45748,-9.333434 5.14083,-19.118008 11.13876,-29.589382 2.11936,-3.70006 6.70901,-10.709674 9.27136,-14.159859 1.39524,-1.878669 1.68583,-2.150148 1.95471,-1.826164 0.25763,0.31043 0.22797,0.484392 -0.16096,0.944031 l -0.4768,0.563474 0.55881,-0.47257 c 0.30734,-0.259913 0.72038,-0.410567 0.91786,-0.334785 0.19748,0.07578 1.82112,1.295537 3.60808,2.710569 2.38545,1.888962 6.77294,6.107613 16.50726,15.872045 8.63047,8.65716 13.81806,13.670959 14.86206,14.364153 1.94257,1.289834 3.55275,1.804289 6.22488,1.988867 2.71622,0.187626 4.67826,-0.179752 7.88509,-1.476426 l 2.68773,-1.086778 1.71213,1.808895 c 3.88021,4.09952 6.96127,10.17843 8.80508,17.37234 1.22752,4.78937 1.38691,6.2007 1.37053,12.13569 -0.013,4.73694 -0.0961,5.91935 -0.56332,8.02213 -1.09299,4.91908 -2.73761,8.89098 -5.1904,12.53525 -0.78556,1.16715 -1.42829,2.20134 -1.42829,2.29821 0,0.0969 -2.35807,0.94382 -5.24016,1.88212 -2.88209,0.9383 -7.22891,2.50149 -9.65959,3.47374 -2.43068,0.97226 -4.70352,1.7631 -5.05076,1.75744 -1.08795,-0.0178 -8.83327,2.83013 -21.92244,8.06065 -4.48751,1.79324 -8.43518,3.26044 -8.77258,3.26044 -1.09536,0 -10.76348,-9.67445 -14.66759,-14.67718 -6.82121,-8.7407 -10.85469,-16.89448 -12.85243,-25.98146 -0.32062,-1.45841 -0.59026,-2.42437 -0.59918,-2.14657 -0.0606,1.8845 2.45652,10.04078 4.34731,14.08698 1.3916,2.97793 4.1359,7.65572 6.10673,10.40922 3.78437,5.28722 9.41322,11.57795 14.33891,16.02499 1.60857,1.45225 2.86889,2.73073 2.8007,2.84105 -0.37649,0.60918 -1.52413,-0.35642 -7.04016,-5.92346 z M 259.2917,110.82545 c 0,-4.8021 -0.0783,-7.46096 -0.19511,-6.6291 -0.28335,2.01718 -0.3451,9.86178 -0.0979,12.4375 0.11665,1.21534 0.23029,2.2097 0.25254,2.20968 0.0223,-2e-5 0.0405,-3.60816 0.0405,-8.01808 z m 2.15739,-16.59625 c 1.19018,-4.264043 3.0989,-9.151429 5.5509,-14.213377 1.22788,-2.534851 2.18425,-4.608821 2.12527,-4.608821 -0.18132,0 -3.2945,6.337629 -4.47831,9.116698 -2.31868,5.443209 -4.68699,13.371091 -5.0847,17.021 -0.0757,0.69448 0.14395,-0.0442 0.48807,-1.641499 0.34411,-1.597303 0.97356,-4.150605 1.39877,-5.674001 z m 9.08055,-20.968772 c 0.45837,-0.833376 0.71521,-1.401586 0.57076,-1.26269 -0.14445,0.138896 -0.63453,0.934391 -1.08906,1.767767 -0.45453,0.833375 -0.71138,1.401586 -0.57076,1.26269 0.14062,-0.138896 0.6307,-0.934391 1.08906,-1.767767 z m 1.91912,-3.219861 c 0.52004,-0.8681 2.22851,-3.485867 3.79661,-5.81726 1.5681,-2.331393 2.73979,-4.170111 2.60376,-4.086039 -0.13604,0.08407 -1.65024,2.275681 -3.3649,4.870243 -3.37084,5.100611 -4.30994,6.611419 -4.10958,6.611419 0.0707,0 0.55407,-0.710263 1.07411,-1.578363 z m 7.4248,-11.048543 c 0.2967,-0.416688 0.48264,-0.757615 0.4132,-0.757615 -0.0695,0 -0.36903,0.340927 -0.66574,0.757615 -0.29671,0.416688 -0.48265,0.757614 -0.4132,0.757614 0.0694,0 0.36903,-0.340926 0.66574,-0.757614 z"
       id="path5101"
       inkscape:connector-curvature="0"
       transform="scale(0.26458333)" />
    <path
       style="opacity:0.34200003;fill:#ffff00;fill-opacity:0.99186994;fill-rule:nonzero;stroke:#fbfc00;stroke-width:0.25293583;stroke-miterlimit:4;stroke-dasharray:none;stroke-dashoffset:0;stroke-opacity:1"
       d="m 287.83176,164.40703 c -0.99896,-0.90358 -1.18352,-1.18612 -0.89235,-1.36607 0.41089,-0.25395 1.09778,0.16419 0.87141,0.53047 -0.0761,0.12315 0.0733,0.22392 0.33205,0.22392 0.25874,0 0.85595,0.39775 1.32713,0.88388 0.84394,0.87073 0.8475,0.88376 0.23895,0.87544 -0.36978,-0.005 -1.1233,-0.46572 -1.87719,-1.14764 z"
       id="path5103"
       inkscape:connector-curvature="0"
       transform="scale(0.26458333)" />
    <path
       style="fill:none;stroke:#fba600;stroke-width:0.26458332px;stroke-linecap:butt;stroke-linejoin:miter;stroke-opacity:1;opacity:0.319"
       d="m 52.785732,32.469986 c 7.874217,-3.139147 17.393861,-1.707665 30.067821,8.485807"
       id="path5105"
       inkscape:connector-curvature="0"
       sodipodi:nodetypes="cc" />
    <path
       style="fill:none;stroke:#fba700;stroke-width:0.26458332px;stroke-linecap:butt;stroke-linejoin:miter;stroke-opacity:1;opacity:0.362"
       d="m 36.682743,40.888978 c -2.438176,4.183826 -4.430627,13.316189 3.741772,19.978396"
       id="path5107"
       inkscape:connector-curvature="0"
       sodipodi:nodetypes="cc" />
    <path
       style="fill:none;stroke:#f5a700;stroke-width:0.26458332px;stroke-linecap:butt;stroke-linejoin:miter;stroke-opacity:1;opacity:0.353"
       d="m 72.029137,63.339617 c 4.584128,-3.760843 9.712406,-7.166806 10.356693,-13.49711"
       id="path5109"
       inkscape:connector-curvature="0"
       sodipodi:nodetypes="cc" />
    <path
       style="opacity:0.54;fill:#ffab00;fill-opacity:0.99186993;fill-rule:nonzero;stroke:none;stroke-width:0.25293583;stroke-miterlimit:4;stroke-dasharray:none;stroke-dashoffset:0;stroke-opacity:1"
       d="m 150.55833,227.37922 c -9.50407,-8.47314 -15.83168,-19.09727 -18.18881,-30.53925 -0.86451,-4.19655 -1.12592,-6.90297 -1.12829,-11.68176 -0.005,-9.70514 2.14453,-18.9746 6.35127,-27.39108 0.69374,-1.38799 1.29351,-2.55577 1.33281,-2.59507 0.0393,-0.0393 3.01374,0.26468 6.60985,0.67552 8.90644,1.01751 11.07761,1.13576 14.53916,0.79183 7.79482,-0.77446 14.10907,-3.22126 20.40978,-7.90888 3.62303,-2.69547 8.73866,-7.98013 11.77003,-12.15891 l 0.53209,-0.73349 5.65509,3.28774 c 16.29393,9.47292 27.71954,15.28611 38.10938,19.38953 13.22904,5.22475 25.15481,7.97735 37.35197,8.62127 l 3.32716,0.17565 -4.49436,2.31348 c -24.08773,12.39923 -37.28917,26.97508 -40.4924,44.7081 -0.30108,1.66675 -0.59432,3.28615 -0.65165,3.59867 -0.10154,0.55354 -0.18726,0.56841 -3.31928,0.57609 -4.62727,0.0113 -7.23189,0.38269 -24.63214,3.51189 -16.29442,2.93034 -27.54118,4.8407 -35.02519,5.94935 -4.01475,0.59472 -14.39964,1.90165 -15.02202,1.8905 -0.14109,-0.003 -1.5066,-1.11906 -3.03445,-2.48118 z m 89.1404,-53.64082 c 0.78616,-0.68309 1.1961,-2.46225 0.56732,-2.46225 -0.25878,0 -0.34584,-0.16201 -0.26113,-0.48595 0.0927,-0.35469 -0.0836,-0.59487 -0.65281,-0.88924 -2.19818,-1.13672 -4.05459,1.6662 -2.40329,3.62865 0.79739,0.94766 1.81098,1.02461 2.74991,0.20879 z"
       id="path5111"
       inkscape:connector-curvature="0"
       transform="scale(0.26458333)" />
    <path
       style="opacity:0.54000005;fill:#ffab00;fill-opacity:0.99186994;fill-rule:nonzero;stroke:none;stroke-width:0.25293583;stroke-miterlimit:4;stroke-dasharray:none;stroke-dashoffset:0;stroke-opacity:1"
       d="m 269.71015,166.81517 c -8.08672,-0.72363 -18.49162,-3.00412 -26.38709,-5.78339 -2.97065,-1.04569 -5.32921,-1.9178 -6.14415,-2.27189 -0.41669,-0.18104 -2.00768,-0.83443 -3.53554,-1.45196 -5.54853,-2.24263 -12.7685,-5.7664 -21.71828,-10.59981 -4.50947,-2.43539 -14.87138,-8.31099 -15.02602,-8.52033 -0.0694,-0.094 -0.23991,-0.21639 -0.3788,-0.27194 -0.1389,-0.0556 -1.0208,-0.55204 -1.95979,-1.10331 -1.67969,-0.98614 -2.04463,-1.54193 -0.98728,-1.50359 0.38232,0.0139 0.46668,-0.0657 0.29243,-0.27562 -0.16879,-0.20338 0.25979,-1.08089 1.37901,-2.82348 0.89316,-1.39061 2.41486,-3.93717 3.38157,-5.65903 0.9667,-1.72186 1.93468,-3.32468 2.15107,-3.56183 0.47686,-0.52262 6.5637,-2.48716 10.3902,-3.35345 6.55374,-1.48372 9.29292,-1.76465 17.17259,-1.76119 7.78497,0.003 9.89941,0.19738 16.56029,1.51918 3.87767,0.7695 6.93061,1.56785 11.13973,2.91309 3.10223,0.99147 3.20918,1.04939 3.37275,1.82636 0.73231,3.47867 3.26427,9.79361 5.56313,13.87498 3.95463,7.02099 7.81239,11.88716 16.1146,20.32695 2.63089,2.67448 4.73668,4.9071 4.67954,4.96138 -0.0571,0.0543 -1.39254,0.67871 -2.96757,1.38762 l -2.8637,1.28894 -3.44976,0.0512 -3.44976,0.0512 3.15673,0.13821 c 3.08396,0.13503 3.13635,0.14695 2.27284,0.51702 -1.0824,0.46389 -4.18595,0.4939 -8.75874,0.0847 z m 2.00335,-1.02055 c -0.31252,-0.0602 -0.82391,-0.0602 -1.13643,0 -0.31251,0.0602 -0.0568,0.10945 0.56822,0.10945 0.62503,0 0.88072,-0.0493 0.56821,-0.10945 z m -3.78808,-0.24156 c -0.17362,-0.0701 -0.45772,-0.0701 -0.63134,0 -0.17362,0.0701 -0.0316,0.12738 0.31567,0.12738 0.34724,0 0.48929,-0.0573 0.31567,-0.12738 z m -3.41407,-0.51283 c -0.24571,-0.064 -0.58663,-0.0598 -0.75761,0.009 -0.17098,0.0692 0.0301,0.12156 0.44675,0.11641 0.41668,-0.005 0.55658,-0.0617 0.31086,-0.12577 z m -1.51568,-0.23011 c -0.0839,-0.0839 -0.30173,-0.0929 -0.48403,-0.0199 -0.20146,0.0806 -0.14162,0.14046 0.15257,0.15258 0.26622,0.011 0.41538,-0.0487 0.33146,-0.13264 z m -1.76777,-0.25254 c -0.0839,-0.0839 -0.30173,-0.0929 -0.48403,-0.0199 -0.20146,0.0806 -0.14162,0.14045 0.15258,0.15257 0.26621,0.011 0.41537,-0.0487 0.33145,-0.13264 z m -1.13116,-0.26721 c -0.17362,-0.0701 -0.45772,-0.0701 -0.63134,0 -0.17362,0.0701 -0.0316,0.12738 0.31567,0.12738 0.34724,0 0.48929,-0.0573 0.31567,-0.12738 z m -2.52538,-0.50508 c -0.17362,-0.0701 -0.45772,-0.0701 -0.63134,0 -0.17362,0.0701 -0.0316,0.12738 0.31567,0.12738 0.34724,0 0.48929,-0.0573 0.31567,-0.12738 z m -1.14168,-0.23786 c -0.0839,-0.0839 -0.30173,-0.0929 -0.48403,-0.0199 -0.20146,0.0806 -0.14162,0.14046 0.15257,0.15258 0.26622,0.011 0.41537,-0.0487 0.33146,-0.13264 z m -2.02031,-0.50508 c -0.0839,-0.0839 -0.30173,-0.0929 -0.48403,-0.0199 -0.20146,0.0806 -0.14162,0.14045 0.15258,0.15257 0.26621,0.011 0.41537,-0.0487 0.33145,-0.13264 z m -1.01015,-0.25254 c -0.0839,-0.0839 -0.30173,-0.0929 -0.48403,-0.0199 -0.20146,0.0806 -0.14162,0.14046 0.15257,0.15257 0.26622,0.011 0.41538,-0.0487 0.33146,-0.13264 z m -1.01015,-0.25253 c -0.0839,-0.0839 -0.30173,-0.0929 -0.48403,-0.0199 -0.20146,0.0806 -0.14162,0.14046 0.15257,0.15257 0.26622,0.011 0.41537,-0.0487 0.33146,-0.13263 z m -1.32057,-0.3525 c -0.27779,-0.11938 -0.67554,-0.21704 -0.88388,-0.21704 -0.23877,0 -0.19209,0.0802 0.12627,0.21704 0.27779,0.11937 0.67554,0.21703 0.88388,0.21703 0.23877,0 0.19209,-0.0802 -0.12627,-0.21703 z m -1.76776,-0.50508 c -0.27779,-0.11937 -0.67554,-0.21704 -0.88389,-0.21704 -0.23877,0 -0.19209,0.0802 0.12627,0.21704 0.27779,0.11937 0.67554,0.21704 0.88389,0.21704 0.23877,0 0.19209,-0.0802 -0.12627,-0.21704 z m -3.66181,-1.13642 c -1.15301,-0.44402 -1.60666,-0.43747 -0.63134,0.009 0.41669,0.1908 0.92808,0.34339 1.13642,0.33909 0.20834,-0.004 -0.0189,-0.161 -0.50508,-0.3482 z m -4.04061,-1.36609 c -0.20834,-0.11787 -0.66291,-0.28376 -1.01015,-0.36863 -0.52625,-0.12862 -0.50523,-0.0936 0.12627,0.2106 0.80932,0.38982 1.51733,0.5164 0.88388,0.15803 z m -2.0203,-0.75762 c -0.20835,-0.11787 -0.66291,-0.28375 -1.01015,-0.36862 -0.52626,-0.12863 -0.50524,-0.0936 0.12627,0.2106 0.80931,0.38981 1.51732,0.5164 0.88388,0.15802 z m -2.02031,-0.78048 c -0.20834,-0.13464 -0.49245,-0.2448 -0.63134,-0.2448 -0.1389,0 -0.0821,0.11016 0.12627,0.2448 0.20834,0.13464 0.49245,0.2448 0.63134,0.2448 0.1389,0 0.0821,-0.11016 -0.12627,-0.2448 z m -1.03119,-0.3504 c -0.23215,-0.2159 -3.8483,-1.67281 -3.93553,-1.58559 -0.10237,0.10237 3.43368,1.65501 3.80926,1.6726 0.12732,0.006 0.18414,-0.0332 0.12627,-0.087 z m -5.02972,-2.17498 c -0.48614,-0.26615 -0.99753,-0.48391 -1.13642,-0.48391 -0.1389,0 0.14521,0.21776 0.63134,0.48391 0.48614,0.26615 0.99753,0.4839 1.13642,0.4839 0.1389,0 -0.14521,-0.21775 -0.63134,-0.4839 z m -2.27284,-1.01015 c -0.48614,-0.26615 -0.99753,-0.48391 -1.13643,-0.48391 -0.13889,0 0.14521,0.21776 0.63135,0.48391 0.48613,0.26614 0.99752,0.4839 1.13642,0.4839 0.1389,0 -0.14521,-0.21776 -0.63134,-0.4839 z m -4.04061,-1.89404 c -1.18062,-0.61108 -2.26022,-1.11105 -2.39912,-1.11105 -0.13889,0 0.71342,0.49997 1.89404,1.11105 1.18061,0.61108 2.26022,1.11105 2.39911,1.11105 0.1389,0 -0.71342,-0.49997 -1.89403,-1.11105 z m -5.30331,-2.52256 c 0,-0.0679 -0.90913,-0.58056 -2.0203,-1.13924 -1.11117,-0.55869 -2.02031,-0.95908 -2.02031,-0.88976 0,0.0972 3.69003,2.08235 3.97748,2.13982 0.0347,0.007 0.0631,-0.0429 0.0631,-0.11082 z m -6.31345,-3.27933 c 0,-0.0659 -0.34093,-0.29609 -0.75761,-0.51156 -0.94977,-0.49115 -1.00724,-0.27782 -0.0631,0.23436 0.79362,0.43054 0.82075,0.43971 0.82075,0.2772 z m -6.81853,-3.78807 c 0,-0.0659 -0.34093,-0.29609 -0.75761,-0.51157 -0.94977,-0.49114 -1.00724,-0.27782 -0.0631,0.23437 0.79362,0.43054 0.82075,0.4397 0.82075,0.2772 z m -1.76777,-1.00776 c 0,-0.0646 -0.25569,-0.24129 -0.56821,-0.39274 -0.54564,-0.26441 -0.54874,-0.25975 -0.078,0.11739 0.51525,0.41279 0.64621,0.4686 0.64621,0.27535 z m -1.76776,-1.01015 c 0,-0.0646 -0.2557,-0.24129 -0.56821,-0.39274 -0.54564,-0.26442 -0.54874,-0.25975 -0.078,0.11739 0.51524,0.41279 0.64621,0.4686 0.64621,0.27535 z"
       id="path5113"
       inkscape:connector-curvature="0"
       transform="scale(0.26458333)" />
    <path
       style="opacity:0.54000005;fill:#ffab00;fill-opacity:0.99186994;fill-rule:nonzero;stroke:none;stroke-width:0.25293583;stroke-miterlimit:4;stroke-dasharray:none;stroke-dashoffset:0;stroke-opacity:1"
       d="m 285.07329,161.94408 c -2.28629,-1.90266 -7.80203,-7.53152 -10.86304,-11.08582 -6.56842,-7.62691 -11.02538,-15.20619 -13.66168,-23.23234 -0.53168,-1.61868 -1.03918,-3.26153 -1.12777,-3.65078 -0.1535,-0.67444 -0.13398,-0.69282 0.41527,-0.39095 0.31699,0.17422 0.72798,0.342 0.91332,0.37283 0.18533,0.0308 1.54904,0.54041 3.03045,1.1324 13.57487,5.42466 28.49066,14.27759 43.6678,25.91803 1.70148,1.30498 3.09359,2.4066 3.09359,2.44802 0,0.0414 -0.71026,0.33042 -1.57836,0.6422 -0.8681,0.31178 -5.83994,2.24762 -11.04854,4.30188 -5.2086,2.05426 -9.71294,3.80668 -10.00964,3.89428 -0.37542,0.11084 -0.79777,-0.05 -1.38896,-0.52901 l -0.8495,-0.68828 0.74332,0.80832 c 0.52389,0.5697 0.66425,0.8874 0.47547,1.07618 -0.18879,0.18879 -0.72361,-0.11142 -1.81173,-1.01696 z m -1.6799,-3.0423 c -1.24428,-1.25006 -2.31914,-2.27284 -2.38859,-2.27284 -0.0694,0 0.89177,1.02278 2.13605,2.27284 1.24427,1.25006 2.31913,2.27284 2.38858,2.27284 0.0695,0 -0.89177,-1.02278 -2.13604,-2.27284 z m -2.90419,-2.84663 c 0,-0.0378 -0.99437,-1.03216 -2.20971,-2.20971 l -2.20971,-2.141 2.141,2.20971 c 1.98849,2.05231 2.27842,2.32475 2.27842,2.141 z m -4.79823,-5.06918 c 0,-0.0479 -0.25569,-0.30362 -0.56821,-0.56821 l -0.56821,-0.48108 0.48108,0.56821 c 0.4521,0.53397 0.65534,0.68317 0.65534,0.48108 z m -1.76776,-2.05945 c -0.17291,-0.20834 -0.37121,-0.3788 -0.44066,-0.3788 -0.0694,0 0.0152,0.17046 0.18812,0.3788 0.17291,0.20835 0.3712,0.37881 0.44065,0.37881 0.0695,0 -0.0152,-0.17046 -0.18811,-0.37881 z m -1.01016,-1.26269 c -0.17291,-0.20834 -0.3712,-0.3788 -0.44065,-0.3788 -0.0695,0 0.0152,0.17046 0.18811,0.3788 0.17291,0.20835 0.37121,0.37881 0.44066,0.37881 0.0694,0 -0.0152,-0.17046 -0.18812,-0.37881 z m -1.01015,-1.26269 c -0.17291,-0.20834 -0.3712,-0.3788 -0.44065,-0.3788 -0.0694,0 0.0152,0.17046 0.18811,0.3788 0.17291,0.20835 0.3712,0.37881 0.44065,0.37881 0.0695,0 -0.0152,-0.17046 -0.18811,-0.37881 z m -1.01015,-1.38896 c -0.29671,-0.41669 -0.59629,-0.75761 -0.66574,-0.75761 -0.0695,0 0.11649,0.34092 0.4132,0.75761 0.29671,0.41669 0.59629,0.75762 0.66574,0.75762 0.0695,0 -0.11649,-0.34093 -0.4132,-0.75762 z m -1.92908,-2.77792 c -0.64651,-0.97227 -1.22234,-1.76776 -1.2796,-1.76776 -0.13412,0 0.0535,0.3148 1.24176,2.08344 0.53657,0.79865 1.02908,1.45209 1.09446,1.45209 0.0654,0 -0.4101,-0.79549 -1.05662,-1.76777 z m -1.60646,-2.52538 c -0.14867,-0.27779 -0.32713,-0.50507 -0.39657,-0.50507 -0.0695,0 -0.005,0.22728 0.14404,0.50507 0.14867,0.27779 0.32713,0.50508 0.39657,0.50508 0.0694,0 0.005,-0.22729 -0.14404,-0.50508 z m -0.75761,-1.26269 c -0.14867,-0.27779 -0.32713,-0.50508 -0.39658,-0.50508 -0.0694,0 -0.005,0.22729 0.14404,0.50508 0.14867,0.27779 0.32713,0.50508 0.39658,0.50508 0.0694,0 0.005,-0.22729 -0.14404,-0.50508 z m -1.82118,-3.39978 c -0.58294,-1.1754 -1.10068,-2.09629 -1.15054,-2.04644 -0.11223,0.11223 1.92055,4.18353 2.08881,4.18353 0.0669,0 -0.35534,-0.96169 -0.93827,-2.13709 z m -1.68353,-3.58921 c -0.2977,-0.51195 -0.36959,-0.34809 -0.1259,0.28697 0.0866,0.22569 0.21067,0.35715 0.27569,0.29213 0.065,-0.065 -0.002,-0.32562 -0.14979,-0.5791 z m -0.50507,-1.26269 c -0.29771,-0.51195 -0.3696,-0.34809 -0.1259,0.28697 0.0866,0.22569 0.21066,0.35715 0.27568,0.29213 0.065,-0.065 -0.002,-0.32562 -0.14978,-0.5791 z m -1.02439,-2.87862 c -0.4049,-1.17037 -0.74474,-2.0147 -0.7552,-1.87627 -0.028,0.37024 1.27884,4.21676 1.3936,4.10199 0.0538,-0.0538 -0.2335,-1.05535 -0.6384,-2.22572 z m -0.85423,-2.80665 c -0.0806,-0.20146 -0.14046,-0.14161 -0.15258,0.15258 -0.011,0.26622 0.0487,0.41537 0.13264,0.33145 0.0839,-0.0839 0.0929,-0.30173 0.0199,-0.48403 z"
       id="path5115"
       inkscape:connector-curvature="0"
       transform="scale(0.26458333)" />
    <path
       style="opacity:0.54000005;fill:#ffab00;fill-opacity:0.99186994;fill-rule:nonzero;stroke:none;stroke-width:0.25293583;stroke-miterlimit:4;stroke-dasharray:none;stroke-dashoffset:0;stroke-opacity:1"
       d="m 288.58564,165.0797 c -1.73519,-1.47099 -2.07568,-1.86803 -1.87727,-2.18907 0.20579,-0.33297 1.15457,0.31445 1.01061,0.68961 -0.0883,0.23022 -0.005,0.29729 0.2496,0.19977 0.45465,-0.17447 2.1746,1.39036 1.94195,1.7668 -0.0895,0.14485 -0.0271,0.17221 0.14716,0.0645 0.16644,-0.10287 0.47452,-0.0444 0.68461,0.13 0.3105,0.25768 0.36751,0.25143 0.30461,-0.0334 -0.0426,-0.19274 -0.47513,-0.65114 -0.96126,-1.01867 -0.48614,-0.36753 -1.15026,-0.95803 -1.47584,-1.31223 -0.73037,-0.79457 -1.41403,-0.42453 6.77914,-3.66941 11.464,-4.54029 15.64795,-6.07612 15.81527,-5.80539 0.0876,0.1418 0.003,0.36765 -0.18869,0.50189 -0.24864,0.17438 -0.14685,0.21182 0.35646,0.13114 0.38747,-0.0621 0.67158,-0.0339 0.63135,0.0628 -0.0402,0.0966 -0.81182,0.79595 -1.71464,1.55407 -0.90283,0.75811 -2.38018,2.36211 -3.283,3.56443 -0.90282,1.20232 -1.71936,2.26112 -1.81453,2.35288 -0.0952,0.0918 -1.34523,0.48817 -2.77792,0.8809 -1.43269,0.39274 -2.43362,0.72209 -2.2243,0.7319 0.20932,0.01 1.39743,-0.26193 2.64025,-0.60386 1.24282,-0.34194 2.29605,-0.58532 2.34052,-0.54085 0.0445,0.0445 -0.12087,0.31504 -0.36741,0.60129 -0.30445,0.35347 -1.30472,0.7264 -3.11786,1.16242 -3.03258,0.72927 -9.23479,1.90502 -9.97202,1.89039 -0.2697,-0.005 -0.71765,0.0525 -0.99544,0.12853 -0.36218,0.0991 -0.96517,-0.25179 -2.13135,-1.24039 z m 8.75522,-0.77466 c -0.0839,-0.0839 -0.30173,-0.0929 -0.48404,-0.0199 -0.20145,0.0806 -0.14161,0.14045 0.15258,0.15257 0.26622,0.011 0.41537,-0.0487 0.33146,-0.13264 z m 1.26269,-0.25253 c -0.0839,-0.0839 -0.30173,-0.0929 -0.48403,-0.0199 -0.20146,0.0806 -0.14162,0.14046 0.15257,0.15257 0.26622,0.011 0.41537,-0.0487 0.33146,-0.13264 z m 1.01015,-0.25254 c -0.0839,-0.0839 -0.30173,-0.0929 -0.48403,-0.0199 -0.20146,0.0806 -0.14162,0.14046 0.15257,0.15257 0.26622,0.011 0.41538,-0.0487 0.33146,-0.13263 z m -5.43466,-2.47644 c 6.41471,-2.59883 7.29901,-2.98281 7.16893,-3.1129 -0.11993,-0.11993 -11.36878,4.30689 -12.01994,4.73027 -0.96608,0.62814 0.58443,0.11118 4.85101,-1.61737 z m 10.04874,-4.08461 c 0.34724,-0.18547 0.50317,-0.34177 0.34651,-0.34733 -0.38368,-0.0136 -2.11428,0.71829 -2.11428,0.89418 0,0.18122 0.96155,-0.11622 1.76777,-0.54685 z m 2.1791,-1.04045 c -0.20816,-0.20816 -0.91641,0.12527 -0.91641,0.43143 0,0.18676 0.16149,0.18292 0.52671,-0.0125 0.28969,-0.15504 0.46505,-0.34354 0.3897,-0.41889 z m 1.60166,-0.31728 c 0.62399,-0.39463 0.18105,-0.48924 -0.62403,-0.1333 -0.58626,0.25919 -0.64338,0.33871 -0.25254,0.35159 0.27779,0.009 0.67225,-0.0891 0.87657,-0.21829 z m 1.52254,-0.81555 c 0,-0.33193 -0.57396,-0.12408 -0.6998,0.25343 -0.0615,0.18454 0.0539,0.24098 0.29989,0.1466 0.21995,-0.0844 0.39991,-0.26442 0.39991,-0.40003 z"
       id="path5117"
       inkscape:connector-curvature="0"
       transform="scale(0.26458333)" />
    <path
       style="opacity:0.54000005;fill:#ffab00;fill-opacity:0.99186994;fill-rule:nonzero;stroke:none;stroke-width:0.25293583;stroke-miterlimit:4;stroke-dasharray:none;stroke-dashoffset:0;stroke-opacity:1"
       d="m 299.93463,174.13534 c -4.77249,-3.6352 -9.55541,-7.53998 -9.28794,-7.58268 4.33906,-0.69259 11.45399,-2.15227 13.36714,-2.74237 0.32379,-0.0999 0.19053,0.39721 -0.59421,2.21646 -1.10063,2.55159 -1.89848,5.32457 -2.17339,7.55374 l -0.17518,1.42046 z m -0.50507,-1.72277 c -0.17291,-0.20834 -0.37121,-0.37881 -0.44065,-0.37881 -0.0694,0 0.0152,0.17047 0.18811,0.37881 0.17291,0.20834 0.3712,0.37881 0.44065,0.37881 0.0695,0 -0.0152,-0.17047 -0.18811,-0.37881 z m -0.75762,-0.48364 c 0,-0.10539 -5.48373,-4.51321 -6.43535,-5.17273 -1.2593,-0.87274 0.4069,0.57731 3.27863,2.85333 3.10474,2.4607 3.15672,2.49889 3.15672,2.3194 z"
       id="path5119"
       inkscape:connector-curvature="0"
       transform="scale(0.26458333)" />
    <path
       style="opacity:0.54000005;fill:#ffab00;fill-opacity:0.99186994;fill-rule:nonzero;stroke:none;stroke-width:0.25293583;stroke-miterlimit:4;stroke-dasharray:none;stroke-dashoffset:0;stroke-opacity:1"
       d="m 269.97453,237.11351 c -6.47192,-6.09081 -11.51404,-9.73926 -18.00872,-13.03101 -5.27233,-2.67222 -9.77571,-4.17792 -14.7869,-4.94399 -4.64582,-0.7102 -4.16216,-0.49737 -4.20127,-1.84873 -0.0189,-0.65346 -0.0791,-0.90401 -0.13384,-0.55677 -0.22433,1.42423 -0.36434,1.76777 -0.72047,1.76777 -0.52484,0 -0.47835,-0.8101 0.25407,-4.42739 2.71955,-13.43142 10.15595,-24.17661 23.63216,-34.1472 7.1936,-5.32229 20.35717,-12.70574 22.60429,-12.67874 l 0.99146,0.0119 -1.38896,0.73378 c -1.79883,0.95032 -1.43638,0.97815 0.44915,0.0345 1.26402,-0.63262 1.83903,-0.74557 4.59345,-0.90231 1.73171,-0.0985 3.99291,-0.27387 5.02489,-0.3896 l 1.87633,-0.21042 2.27723,1.88483 c 1.25249,1.03665 3.72942,2.98239 5.50431,4.32387 l 3.22707,2.43905 0.15455,1.65022 c 0.30666,3.2742 1.72344,6.15943 4.19705,8.54712 1.3386,1.2921 3.65461,2.85114 4.75368,3.19997 0.4935,0.15664 0.53839,0.29533 0.39711,1.22705 -1.75459,11.57149 -7.09189,21.17708 -17.21177,30.97621 -3.89655,3.77305 -6.93044,6.3899 -14.48543,12.49426 -3.40295,2.74956 -6.3731,5.16017 -6.60033,5.35692 -0.3674,0.31812 -0.63302,0.1508 -2.39911,-1.51129 z M 234.74792,209.2678 c 0.28524,-0.95077 0.4775,-1.76979 0.42724,-1.82005 -0.23201,-0.23201 -1.78534,5.48277 -2.01884,7.42743 -0.081,0.67457 0.12729,0.0778 0.46286,-1.32611 0.33557,-1.40392 0.8435,-3.3305 1.12874,-4.28127 z m 2.42501,-6.04558 c 0.71915,-1.52785 1.89311,-3.72075 2.6088,-4.87309 0.7157,-1.15235 1.19563,-2.02989 1.06653,-1.95011 -0.7217,0.44604 -5.00737,8.54615 -5.41386,10.23247 l -0.15219,0.63134 0.29158,-0.63134 c 0.16038,-0.34724 0.87999,-1.88141 1.59914,-3.40927 z m 7.11007,-10.97951 c 3.73613,-4.47933 9.37301,-9.39448 15.62434,-13.62384 3.72151,-2.5178 9.63537,-6.02884 13.00658,-7.72196 1.24959,-0.62758 2.27198,-1.19801 2.27198,-1.26761 0,-0.18634 -3.74313,1.72367 -7.07107,3.60816 -5.44181,3.0815 -10.69398,6.60852 -14.89975,10.0057 -3.90782,3.15652 -9.23502,8.68343 -11.46793,11.89784 l -0.70171,1.01015 0.71839,-0.87471 c 0.39511,-0.48109 1.52874,-1.84627 2.51917,-3.03373 z"
       id="path5121"
       inkscape:connector-curvature="0"
       transform="scale(0.26458333)" />
    <path
       style="opacity:0.54000005;fill:#ffab00;fill-opacity:0.99186994;fill-rule:nonzero;stroke:none;stroke-width:0.25293583;stroke-miterlimit:4;stroke-dasharray:none;stroke-dashoffset:0;stroke-opacity:1"
       d="m 277.8344,166.97792 c -0.0841,-0.1361 0.0526,-0.25879 0.30391,-0.27263 0.31179,-0.0172 0.25638,-0.0825 -0.17449,-0.2056 -0.36439,-0.10414 0.57728,-0.20141 2.22704,-0.23005 2.63313,-0.0457 2.93166,-0.10152 3.78808,-0.70834 0.51132,-0.3623 0.70239,-0.57307 0.4246,-0.46838 -1.94815,0.73419 -2.55263,0.8966 -3.08768,0.82963 -0.79264,-0.0992 3.94168,-2.22612 4.92934,-2.21451 0.72656,0.009 0.7021,0.0454 -0.62023,0.93552 -0.2551,0.17171 0.0232,0.12935 0.61845,-0.0942 1.01657,-0.38169 1.11292,-0.37861 1.58727,0.0507 0.27775,0.25137 0.44774,0.60625 0.37775,0.78863 -0.0811,0.21124 0.0761,0.33453 0.43304,0.33964 0.30815,0.004 0.767,0.16473 1.01965,0.35626 0.44414,0.33668 0.44414,0.35256 0,0.47893 -1.50663,0.42867 -11.59934,0.7823 -11.82673,0.41439 z"
       id="path5123"
       inkscape:connector-curvature="0"
       transform="scale(0.26458333)" />
    <path
       style="fill:none;stroke:#fb00ff;stroke-width:0.26458332px;stroke-linecap:butt;stroke-linejoin:miter;stroke-opacity:1;opacity:0.336"
       d="m 49.51168,37.347654 c 6.163306,3.985399 9.654276,11.851082 7.216277,20.913841"
       id="path5125"
       inkscape:connector-curvature="0"
       sodipodi:nodetypes="cc" />
    <path
       style="opacity:0.33600003;fill:#ff06fa;fill-opacity:0.99186993;fill-rule:nonzero;stroke:none;stroke-width:0.25293583;stroke-miterlimit:4;stroke-dasharray:none;stroke-dashoffset:0;stroke-opacity:1"
       d="m 129.46729,230.61351 c -6.28307,-0.40285 -11.96285,-1.39362 -16.75524,-2.92275 -3.78958,-1.20916 -23.355676,-10.54121 -29.598754,-14.11713 -6.329927,-3.62567 -12.016053,-7.92388 -15.770388,-11.92103 -7.532266,-8.01942 -8.574572,-17.81329 -3.064349,-28.79369 3.537818,-7.04992 8.304821,-12.15036 14.049758,-15.0325 3.802715,-1.90775 8.891544,-3.30173 15.152288,-4.15064 4.580046,-0.62102 22.097535,-0.62168 29.799495,-0.001 8.40236,0.67699 14.26841,1.27474 14.26841,1.45396 0,0.0908 -0.67195,1.57359 -1.49321,3.295 -2.62125,5.49424 -4.53091,11.94794 -5.48443,18.53466 -0.60761,4.1972 -0.6136,12.60892 -0.0117,16.41299 2.17544,13.74883 8.37157,24.9904 19.13679,34.71972 l 2.17222,1.96319 -2.04595,0.16452 c -7.61542,0.61238 -14.79108,0.75156 -20.35495,0.39483 z m -25.63818,-39.70252 c 0.78616,-0.68309 1.1961,-2.46225 0.56732,-2.46225 -0.25878,0 -0.34584,-0.16201 -0.26113,-0.48594 0.0927,-0.3547 -0.0836,-0.59488 -0.65281,-0.88925 -2.19818,-1.13672 -4.05459,1.6662 -2.40329,3.62866 0.79739,0.94765 1.81098,1.0246 2.74991,0.20878 z"
       id="path5127"
       inkscape:connector-curvature="0"
       transform="scale(0.26458333)" />
    <path
       style="opacity:0.33600003;fill:#ff06fa;fill-opacity:0.99186994;fill-rule:nonzero;stroke:none;stroke-width:0.25293583;stroke-miterlimit:4;stroke-dasharray:none;stroke-dashoffset:0;stroke-opacity:1"
       d="m 152.15975,228.65912 c -14.75589,-12.54787 -21.9629,-29.0626 -20.68129,-47.39079 0.60708,-8.68171 2.32438,-15.32121 5.86637,-22.68074 1.83567,-3.81416 0.77919,-3.50876 8.84148,-2.55582 12.99098,1.53549 20.12507,0.65683 28.2163,-3.47521 3.82311,-1.95239 6.97632,-4.23617 10.51634,-7.6167 l 2.87941,-2.74968 2.96994,2.21721 c 5.73551,4.28184 12.49155,11.7724 16.18647,17.94626 8.02786,13.4138 11.24594,29.31259 9.23909,45.6454 -0.35521,2.8909 -1.56768,9.34339 -2.1157,11.25934 l -0.25282,0.88389 -7.64444,1.35217 c -31.40324,5.55472 -38.76153,6.7221 -51.74831,8.20982 -0.79859,0.0915 -1.09822,-0.0463 -2.27284,-1.04515 z"
       id="path5129"
       inkscape:connector-curvature="0"
       transform="scale(0.26458333)" />
    <path
       style="opacity:0.33600003;fill:#ff06fa;fill-opacity:0.99186994;fill-rule:nonzero;stroke:none;stroke-width:0.25293583;stroke-miterlimit:4;stroke-dasharray:none;stroke-dashoffset:0;stroke-opacity:1"
       d="m 148.23116,226.50003 c -3.90929,-3.80778 -6.65372,-7.0353 -8.94968,-10.52503 -4.6371,-7.04812 -7.56859,-14.93847 -8.66908,-23.33348 -0.44863,-3.4223 -0.50921,-10.41546 -0.12119,-13.98858 0.75699,-6.97084 3.04539,-14.9405 6.03389,-21.01385 l 1.18052,-2.39911 1.121,-0.0428 c 0.61655,-0.0235 0.90175,0.0172 0.63378,0.0904 -0.26796,0.0732 -0.62572,0.27164 -0.79501,0.44093 -0.49181,0.49181 -1.86672,3.3494 -1.69443,3.52168 0.0862,0.0862 0.0174,0.15666 -0.15288,0.15666 -0.17024,0 -0.2393,0.11364 -0.15345,0.25253 0.0858,0.1389 0.0357,0.25254 -0.11137,0.25254 -0.14709,0 -0.2488,0.0852 -0.22602,0.18941 0.0741,0.33868 -0.3436,1.57836 -0.53179,1.57836 -0.10068,0 -0.18718,0.14205 -0.19222,0.31567 -0.005,0.17362 -0.46408,1.62256 -1.02011,3.21986 -0.55603,1.59731 -1.26283,4.04061 -1.57067,5.42957 -0.30783,1.38896 -0.6259,2.69585 -0.70681,2.90419 -0.17547,0.45185 -0.31804,1.40229 -0.34095,2.27285 -0.009,0.34724 -0.12699,0.76478 -0.26189,0.92787 -0.1349,0.16309 -0.16904,0.70289 -0.0759,1.19956 0.12118,0.64593 0.0792,0.90302 -0.1475,0.90302 -0.23965,0 -0.27685,0.43096 -0.15261,1.76777 0.1102,1.18566 0.0757,1.76777 -0.10485,1.76777 -0.18357,0 -0.22412,0.98367 -0.12752,3.09359 0.23886,5.21744 0.28926,5.85617 0.49821,6.31402 0.11107,0.24338 0.13245,0.71939 0.0475,1.05781 -0.0849,0.33841 -0.04,0.68605 0.1,0.77252 0.13992,0.0865 0.18795,0.42197 0.10674,0.74554 -0.0812,0.32358 -0.0298,0.66118 0.11431,0.75023 0.14408,0.089 0.1974,0.33018 0.11848,0.53584 -0.0789,0.20567 -0.007,0.53798 0.15904,0.73847 0.16639,0.20049 0.22614,0.48812 0.13278,0.63919 -0.0934,0.15106 -0.0365,0.43517 0.12627,0.63134 0.16281,0.19618 0.22756,0.46745 0.14389,0.60284 -0.0837,0.13538 -0.0416,0.31446 0.0935,0.39795 0.13509,0.0835 0.18602,0.30714 0.11317,0.49698 -0.0728,0.18985 -0.016,0.41714 0.12627,0.50508 0.1423,0.088 0.19471,0.32673 0.11646,0.53062 -0.0782,0.2039 -0.004,0.37072 0.16432,0.37072 0.16862,0 0.24648,0.15662 0.17302,0.34804 -0.0735,0.19141 -0.006,0.47552 0.14976,0.63134 0.15582,0.15582 0.18985,0.28331 0.0756,0.28331 -0.11423,0 -0.0662,0.17047 0.10669,0.37881 0.17291,0.20834 0.25038,0.37881 0.17216,0.37881 -0.0782,0 0.0157,0.30436 0.2087,0.67637 0.19299,0.372 0.29319,0.76975 0.22265,0.88388 -0.0705,0.11413 -0.0115,0.20751 0.13127,0.20751 0.14274,0 0.19411,0.17047 0.11416,0.37881 -0.0799,0.20835 -0.0437,0.37881 0.0805,0.37881 0.1242,0 0.24495,0.25401 0.26834,0.56447 0.0234,0.31046 0.16192,0.60427 0.30785,0.65291 0.14593,0.0487 0.2011,0.19239 0.12258,0.31942 -0.0785,0.12703 -0.0466,0.23097 0.071,0.23097 0.11753,0 0.23283,0.25401 0.25622,0.56447 0.0234,0.31045 0.16192,0.60427 0.30785,0.65291 0.14594,0.0486 0.2011,0.19238 0.12259,0.31941 -0.0785,0.12704 -0.0157,0.23097 0.1396,0.23097 0.15529,0 0.21211,0.11364 0.12627,0.25254 -0.0858,0.1389 -0.029,0.25254 0.12627,0.25254 0.15529,0 0.21211,0.11364 0.12627,0.25254 -0.0858,0.13889 -0.029,0.25254 0.12626,0.25254 0.1553,0 0.21212,0.11364 0.12627,0.25253 -0.0858,0.1389 -0.029,0.25254 0.12627,0.25254 0.15529,0 0.21211,0.11364 0.12627,0.25254 -0.0858,0.1389 -0.029,0.25254 0.12627,0.25254 0.15529,0 0.21211,0.11364 0.12627,0.25254 -0.0858,0.13889 -0.029,0.25253 0.12627,0.25253 0.15529,0 0.21161,0.11445 0.12517,0.25432 -0.0864,0.13988 0.0198,0.32225 0.23618,0.40528 0.21635,0.083 0.33049,0.25268 0.25364,0.37702 -0.0769,0.12434 -0.0127,0.22607 0.14262,0.22607 0.15529,0 0.21212,0.11365 0.12627,0.25254 -0.0858,0.1389 -0.029,0.25254 0.12627,0.25254 0.15529,0 0.21162,0.11445 0.12517,0.25432 -0.0865,0.13988 0.0198,0.32225 0.23618,0.40527 0.21635,0.083 0.34113,0.23547 0.27728,0.33878 -0.0639,0.10331 0.10727,0.42757 0.38026,0.72059 0.27299,0.29302 0.49634,0.65116 0.49634,0.79586 0,0.14471 0.12035,0.2631 0.26744,0.2631 0.1471,0 0.19671,0.11445 0.11027,0.25432 -0.0865,0.13988 0.0205,0.3225 0.23763,0.40583 0.21715,0.0833 0.39481,0.31337 0.39481,0.51122 0,0.19784 0.16981,0.42487 0.37736,0.50452 0.20755,0.0796 0.31801,0.24083 0.24546,0.35821 -0.0725,0.11737 0.0986,0.33674 0.38026,0.4875 0.28168,0.15075 0.51215,0.43656 0.51215,0.63513 0,0.19857 0.22729,0.48267 0.50508,0.63134 0.27779,0.14867 0.50507,0.39118 0.50507,0.53891 0,0.14773 0.31252,0.58042 0.69448,0.96154 0.38197,0.38111 1.97002,1.98929 3.529,3.57372 3.33246,3.38686 4.8334,4.77482 5.16349,4.77482 0.41286,0 -0.0101,0.43754 -0.56257,0.58203 -0.41976,0.10977 -1.27745,-0.59267 -4.20266,-3.44192 z"
       id="path5131"
       inkscape:connector-curvature="0"
       transform="scale(0.26458333)" />
  </g>
  <g
     inkscape:label="Layer 1"
     inkscape:groupmode="layer"
     id="layer1">
    <path
       style="fill:none;stroke:#000000;stroke-width:0.20453465;stroke-linecap:butt;stroke-linejoin:miter;stroke-miterlimit:4;stroke-dasharray:none;stroke-opacity:1"
       d="m 17.76503,44.183969 c 2.740332,-3.968145 7.543552,-4.687535 22.171704,-2.917329 14.628152,1.770206 16.126042,-22.736519 21.004773,-27.27703 4.878732,-4.5405116 8.234773,-2.761858 12.252784,0 4.018009,2.761857 4.803507,4.023195 7.147459,6.272258 2.343952,2.249063 3.686903,5.288426 7.439191,3.500795 3.752285,-1.78763 8.751992,-3.648698 13.127989,-3.646662 4.01405,0.877876 7.26552,2.819069 9.48132,5.83466 2.33062,3.17186 -0.0602,5.83642 -2.91734,7.001591 -8.188832,3.339533 -23.579497,5.546131 -26.1101,9.335456 -3.004267,4.498602 -1.255673,7.42918 2.6256,8.022653 6.401127,0.978776 9.789186,0.42428 17.94158,6.126392 7.48484,5.2352 13.0124,10.501518 11.96105,16.774646 -0.74072,4.419594 -2.14228,6.659368 -4.52186,7.293326 -7.04173,1.876021 -13.54704,1.921286 -18.233307,0.29173 C 85.705452,78.908135 80.622418,75.724993 78.59135,72.3362 70.820363,59.370454 64.169948,57.047439 57.732444,58.187153 c -12.931531,2.289434 -23.463837,4.66608 -29.75676,1.458663 -3.456166,-1.76156 -7.337542,-3.166592 -10.210654,-6.12639 -2.472852,-2.547463 -2.366795,-5.908211 0,-9.335457 z"
       id="path4485"
       inkscape:connector-curvature="0"
       sodipodi:nodetypes="szzzzzcsssssssssssss" />
    <path
       style="fill:none;stroke:#000000;stroke-width:0.26499999;stroke-linecap:butt;stroke-linejoin:miter;stroke-miterlimit:4;stroke-dasharray:none;stroke-opacity:1"
       d="m 156.2244,44.330006 c 0.71634,3.670381 -0.79109,7.475864 4.38303,10.95755 1.91138,1.286176 4.47297,2.515593 11.10365,2.483712 2.89919,-0.01394 5.45525,-0.08575 8.61994,-3.944718 0.58272,-0.710556 3.4139,-7.311949 -1.46101,-7.743337 -2.91886,-0.258294 -5.28037,-0.215892 -7.30503,-2.337612 -2.12323,-2.225019 -3.052,-5.396487 -5.40573,-6.428429 -3.21175,-1.408128 -5.30105,-0.174036 -7.30504,1.022705 -2.5566,1.526742 -3.05028,3.835621 -2.62981,5.990129 z"
       id="path4487"
       inkscape:connector-curvature="0"
       sodipodi:nodetypes="sssssssss" />
    <path
       style="fill:none;stroke:#000000;stroke-width:0.26458332px;stroke-linecap:butt;stroke-linejoin:miter;stroke-opacity:1;marker-end:url(#Arrow2Lend)"
       d="m 120.19643,46.590772 h 28.72619"
       id="path4489"
       inkscape:connector-curvature="0" />
    <path
       style="fill:none;stroke:#000000;stroke-width:0.26458332px;stroke-linecap:butt;stroke-linejoin:miter;stroke-opacity:1"
       d="m 159.82717,42.559409 c 3.08206,2.127458 5.46825,1.471415 7.48355,-0.668174"
       id="path4773"
       inkscape:connector-curvature="0"
       sodipodi:nodetypes="cc" />
    <path
       style="fill:none;stroke:#000000;stroke-width:0.26458332px;stroke-linecap:butt;stroke-linejoin:miter;stroke-opacity:1"
       d="m 161.63124,43.494851 c 1.31909,-0.793038 2.78064,-0.616447 4.27632,-0.534538"
       id="path4775"
       inkscape:connector-curvature="0"
       sodipodi:nodetypes="cc" />
    <path
       style="opacity:0.894;fill:#f60000;fill-opacity:1;fill-rule:nonzero;stroke:#f60000;stroke-width:0.26499999;stroke-miterlimit:4;stroke-dasharray:none;stroke-dashoffset:0;stroke-opacity:1"
       id="path4777"
       sodipodi:type="arc"
       sodipodi:cx="172.65611"
       sodipodi:cy="51.446121"
       sodipodi:rx="0.4009043"
       sodipodi:ry="0.46772167"
       sodipodi:start="0"
       sodipodi:end="5.4427395"
       d="m 173.05702,51.446121 a 0.4009043,0.46772167 0 0 1 -0.31729,0.457436 0.4009043,0.46772167 0 0 1 -0.44964,-0.266622 0.4009043,0.46772167 0 0 1 0.12972,-0.568654 0.4009043,0.46772167 0 0 1 0.50376,0.02942 l -0.26746,0.348425 z" />
    <path
       style="opacity:0.894;fill:#f60000;fill-opacity:1;fill-rule:nonzero;stroke:#f60000;stroke-width:0.26499999;stroke-miterlimit:4;stroke-dasharray:none;stroke-dashoffset:0;stroke-opacity:1"
       id="path4777-9"
       sodipodi:type="arc"
       sodipodi:cx="106.24017"
       sodipodi:cy="75.164612"
       sodipodi:rx="0.4009043"
       sodipodi:ry="0.46772167"
       sodipodi:start="0"
       sodipodi:end="5.4427395"
       d="m 106.64108,75.164612 a 0.4009043,0.46772167 0 0 1 -0.31729,0.457435 0.4009043,0.46772167 0 0 1 -0.44964,-0.266622 0.4009043,0.46772167 0 0 1 0.12972,-0.568653 0.4009043,0.46772167 0 0 1 0.50376,0.02942 l -0.26746,0.348425 z" />
    <path
       style="opacity:0.894;fill:#f60000;fill-opacity:1;fill-rule:nonzero;stroke:#f60000;stroke-width:0.26499999;stroke-miterlimit:4;stroke-dasharray:none;stroke-dashoffset:0;stroke-opacity:1"
       id="path4777-6"
       sodipodi:type="arc"
       sodipodi:cx="80.04776"
       sodipodi:cy="60.197521"
       sodipodi:rx="0.4009043"
       sodipodi:ry="0.46772167"
       sodipodi:start="0"
       sodipodi:end="5.4427395"
       d="m 80.448664,60.197521 a 0.4009043,0.46772167 0 0 1 -0.317288,0.457436 0.4009043,0.46772167 0 0 1 -0.449641,-0.266622 0.4009043,0.46772167 0 0 1 0.129726,-0.568654 0.4009043,0.46772167 0 0 1 0.503755,0.02942 l -0.267456,0.348425 z" />
    <path
       style="opacity:0.894;fill:#f60000;fill-opacity:1;fill-rule:nonzero;stroke:#f60000;stroke-width:0.26499999;stroke-miterlimit:4;stroke-dasharray:none;stroke-dashoffset:0;stroke-opacity:1"
       id="path4777-61"
       sodipodi:type="arc"
       sodipodi:cx="94.480316"
       sodipodi:cy="28.258816"
       sodipodi:rx="0.4009043"
       sodipodi:ry="0.46772167"
       sodipodi:start="0"
       sodipodi:end="5.4427395"
       d="m 94.88122,28.258816 a 0.4009043,0.46772167 0 0 1 -0.317288,0.457435 0.4009043,0.46772167 0 0 1 -0.449641,-0.266622 0.4009043,0.46772167 0 0 1 0.129726,-0.568653 0.4009043,0.46772167 0 0 1 0.503755,0.02942 l -0.267456,0.348425 z" />
    <path
       style="opacity:0.894;fill:#f60000;fill-opacity:1;fill-rule:nonzero;stroke:#f60000;stroke-width:0.26499999;stroke-miterlimit:4;stroke-dasharray:none;stroke-dashoffset:0;stroke-opacity:1"
       id="path4777-3"
       sodipodi:type="arc"
       sodipodi:cx="66.283386"
       sodipodi:cy="18.637112"
       sodipodi:rx="0.4009043"
       sodipodi:ry="0.46772167"
       sodipodi:start="0"
       sodipodi:end="5.4427395"
       d="m 66.684291,18.637112 a 0.4009043,0.46772167 0 0 1 -0.317289,0.457435 0.4009043,0.46772167 0 0 1 -0.449641,-0.266622 0.4009043,0.46772167 0 0 1 0.129726,-0.568653 0.4009043,0.46772167 0 0 1 0.503755,0.02942 l -0.267456,0.348425 z" />
    <path
       style="opacity:0.894;fill:#f60000;fill-opacity:1;fill-rule:nonzero;stroke:#f60000;stroke-width:0.26499999;stroke-miterlimit:4;stroke-dasharray:none;stroke-dashoffset:0;stroke-opacity:1"
       id="path4777-32"
       sodipodi:type="arc"
       sodipodi:cx="27.128395"
       sodipodi:cy="50.041283"
       sodipodi:rx="0.4009043"
       sodipodi:ry="0.46772167"
       sodipodi:start="0"
       sodipodi:end="5.4427395"
       d="m 27.529299,50.041283 a 0.4009043,0.46772167 0 0 1 -0.317288,0.457435 0.4009043,0.46772167 0 0 1 -0.449641,-0.266622 0.4009043,0.46772167 0 0 1 0.129726,-0.568653 0.4009043,0.46772167 0 0 1 0.503755,0.02942 l -0.267456,0.348425 z" />
    <path
       style="opacity:0.894;fill:#f60000;fill-opacity:1;fill-rule:nonzero;stroke:#f60000;stroke-width:0.26499999;stroke-miterlimit:4;stroke-dasharray:none;stroke-dashoffset:0;stroke-opacity:1"
       id="path4777-8"
       sodipodi:type="arc"
       sodipodi:cx="63.076138"
       sodipodi:cy="45.4977"
       sodipodi:rx="0.4009043"
       sodipodi:ry="0.46772167"
       sodipodi:start="0"
       sodipodi:end="5.4427395"
       d="m 63.477042,45.4977 a 0.4009043,0.46772167 0 0 1 -0.317288,0.457435 0.4009043,0.46772167 0 0 1 -0.449641,-0.266622 0.4009043,0.46772167 0 0 1 0.129726,-0.568653 0.4009043,0.46772167 0 0 1 0.503754,0.02942 L 63.076138,45.4977 Z" />
    <path
       style="fill:none;stroke:#0000c5;stroke-width:0.26458332px;stroke-linecap:butt;stroke-linejoin:miter;stroke-opacity:0.97560978;fill-opacity:1;opacity:0.27"
       d="M 79.312232,73.295406 C 80.377825,64.228379 83.072117,55.98905 94.88068,52.381565"
       id="path4504"
       inkscape:connector-curvature="0"
       sodipodi:nodetypes="cc" />
  </g>
</svg>
