<?xml version="1.0" encoding="UTF-8" standalone="no"?>
<!-- Created with Inkscape (http://www.inkscape.org/) -->

<svg
   xmlns:dc="http://purl.org/dc/elements/1.1/"
   xmlns:cc="http://creativecommons.org/ns#"
   xmlns:rdf="http://www.w3.org/1999/02/22-rdf-syntax-ns#"
   xmlns:svg="http://www.w3.org/2000/svg"
   xmlns="http://www.w3.org/2000/svg"
   xmlns:sodipodi="http://sodipodi.sourceforge.net/DTD/sodipodi-0.dtd"
   xmlns:inkscape="http://www.inkscape.org/namespaces/inkscape"
   width="210mm"
   height="297mm"
   viewBox="0 0 210 297"
   version="1.1"
   id="svg8"
   inkscape:version="0.92.1 r15371"
   sodipodi:docname="Nerving7.svg">
  <defs
     id="defs2">
    <marker
       inkscape:stockid="Arrow2Lend"
       orient="auto"
       refY="0.0"
       refX="0.0"
       id="Arrow2Lend"
       style="overflow:visible;"
       inkscape:isstock="true">
      <path
         id="path4512"
         style="fill-rule:evenodd;stroke-width:0.625;stroke-linejoin:round;stroke:#000000;stroke-opacity:1;fill:#000000;fill-opacity:1"
         d="M 8.7185878,4.0337352 L -2.2072895,0.016013256 L 8.7185884,-4.0017078 C 6.9730900,-1.6296469 6.9831476,1.6157441 8.7185878,4.0337352 z "
         transform="scale(1.1) rotate(180) translate(1,0)" />
    </marker>
  </defs>
  <sodipodi:namedview
     id="base"
     pagecolor="#ffffff"
     bordercolor="#666666"
     borderopacity="1.0"
     inkscape:pageopacity="0.0"
     inkscape:pageshadow="2"
     inkscape:zoom="1.979899"
     inkscape:cx="326.19161"
     inkscape:cy="909.61194"
     inkscape:document-units="mm"
     inkscape:current-layer="layer2"
     showgrid="false"
     inkscape:window-width="1920"
     inkscape:window-height="986"
     inkscape:window-x="-11"
     inkscape:window-y="-11"
     inkscape:window-maximized="1"
     inkscape:snap-global="false" />
  <metadata
     id="metadata5">
    <rdf:RDF>
      <cc:Work
         rdf:about="">
        <dc:format>image/svg+xml</dc:format>
        <dc:type
           rdf:resource="http://purl.org/dc/dcmitype/StillImage" />
        <dc:title></dc:title>
      </cc:Work>
    </rdf:RDF>
  </metadata>
  <g
     inkscape:groupmode="layer"
     id="layer2"
     inkscape:label="Layer 2">
    <path
       style="opacity:0.264;fill:#0300c5;fill-opacity:0.99186993;fill-rule:nonzero;stroke:none;stroke-width:0.06692261;stroke-miterlimit:4;stroke-dasharray:none;stroke-dashoffset:0;stroke-opacity:0.61788617"
       d="m 96.76555,81.578275 c -2.20518,-0.182436 -4.01641,-0.557488 -5.84652,-1.210643 -3.3849,-1.208051 -6.67739,-2.989281 -9.04949,-4.895758 -0.71348,-0.573431 -1.81901,-1.639879 -2.14081,-2.065139 l -0.1946,-0.257175 0.11876,-0.945539 c 0.80792,-6.431976 2.67328,-11.034601 5.79897,-14.308397 2.16504,-2.267643 5.00902,-4.003309 8.53377,-5.208119 l 0.89505,-0.30594 0.77539,0.340934 c 2.16201,0.950621 4.65243,2.459863 7.59076,4.600146 2.76449,2.013654 4.58412,3.545555 6.24743,5.259544 1.58413,1.632397 2.62276,3.047714 3.37604,4.600438 1.21257,2.499471 1.36267,4.51871 0.56868,7.650588 -0.34969,1.379355 -0.87382,2.660364 -1.41635,3.461613 -0.39907,0.58937 -1.14937,1.254982 -1.74492,1.547947 -1.12304,0.552455 -4.763,1.311098 -7.89412,1.645301 -1.12658,0.120248 -4.58389,0.175755 -5.61804,0.0902 z"
       id="path4506"
       inkscape:connector-curvature="0" />
    <path
       style="fill:none;stroke:#fe0000;stroke-width:0.26458332px;stroke-linecap:butt;stroke-linejoin:miter;stroke-opacity:1;opacity:0.267"
       d="M 61.405174,57.927409 C 62.387089,48.129815 73.296561,44.079753 84.1899,40.020351"
       id="path5092"
       inkscape:connector-curvature="0"
       sodipodi:nodetypes="cc" />
    <path
       style="fill:none;stroke:#f80000;stroke-width:0.26458332px;stroke-linecap:butt;stroke-linejoin:miter;stroke-opacity:0.99593496;opacity:0.282"
       d="M 96.030559,81.778727 C 101.85185,75.733312 106.60134,68.713108 107.44235,60.533286"
       id="path5094"
       inkscape:connector-curvature="0"
       sodipodi:nodetypes="cc" />
    <path
       style="opacity:0.26700003;fill:#ff0000;fill-opacity:0.99186993;fill-rule:nonzero;stroke:none;stroke-width:0.25293583;stroke-miterlimit:4;stroke-dasharray:none;stroke-dashoffset:0;stroke-opacity:1"
       d="m 296.9416,272.20087 c -5.61015,-9.18115 -12.02695,-18.31775 -17.65624,-25.13993 -3.49943,-4.24098 -12.06907,-12.73286 -15.64311,-15.50116 -9.1677,-7.10092 -18.576,-11.39736 -27.42043,-12.52193 -3.46848,-0.44102 -3.38922,-0.41175 -3.38922,-1.2518 0,-1.43589 1.05941,-6.20408 2.04596,-9.20845 5.72265,-17.42744 21.67657,-31.15526 51.23959,-44.08999 6.77375,-2.96373 26.82953,-10.85425 27.58885,-10.85425 0.14776,0 -0.45302,0.46643 -1.33505,1.03652 -3.51894,2.2744 -6.28595,5.73506 -8.62592,10.78834 -1.73804,3.75337 -2.29118,6.04988 -2.32212,9.64088 -0.0233,2.69808 0.0585,3.40499 0.56296,4.86546 1.22357,3.54266 3.91405,6.46052 7.66138,8.30886 3.65678,1.80368 5.21731,2.12353 18.8963,3.87306 10.82366,1.38433 14.1675,1.9282 18.70442,3.04221 4.40899,1.0826 9.19746,2.62564 8.91398,2.87244 -0.1199,0.1044 -1.46807,0.62297 -2.99593,1.15238 -3.82896,1.32676 -7.98045,3.12806 -11.86929,5.14998 -17.60177,9.15169 -29.04756,22.58067 -35.63666,41.81138 -2.38166,6.95101 -4.47512,16.12168 -5.68156,24.88872 -0.31538,2.29178 -0.65297,4.26249 -0.75022,4.37934 -0.0972,0.11686 -1.1267,-1.34207 -2.28769,-3.24206 z m 6.99196,-42.92086 c 0.76036,-0.76036 0.8908,-2.41059 0.19056,-2.41059 -0.33391,0 -0.36197,-0.0674 -0.12627,-0.30305 0.46049,-0.4605 0.3743,-0.65729 -0.48177,-1.09998 -1.51975,-0.78589 -3.00326,0.22553 -3.00326,2.04755 0,2.05068 2.06831,3.1185 3.42074,1.76607 z"
       id="path5096"
       inkscape:connector-curvature="0"
       transform="scale(0.26458333)" />
    <path
       style="opacity:0.26700003;fill:#ff0000;fill-opacity:0.99186994;fill-rule:nonzero;stroke:none;stroke-width:0.25293583;stroke-miterlimit:4;stroke-dasharray:none;stroke-dashoffset:0;stroke-opacity:1"
       d="m 359.22794,307.53639 c -8.08095,-1.24029 -15.79875,-3.58297 -24.53011,-7.44592 -12.68502,-5.61213 -22.77982,-12.1302 -30.32452,-19.5801 l -3.67834,-3.63213 0.16999,-1.70777 c 1.41397,-14.20499 5.48184,-29.46766 10.52958,-39.50712 0.54626,-1.08647 0.92691,-1.9754 0.84587,-1.9754 -0.081,0 -0.92223,1.6194 -1.86932,3.59866 -4.56695,9.54426 -7.46602,20.14384 -9.53428,34.85926 -0.58351,4.15165 -0.71266,4.69819 -1.03421,4.37665 -0.43065,-0.43066 -0.23714,-2.36208 0.98252,-9.80602 3.58407,-21.87477 10.55183,-37.28764 22.07138,-48.8225 3.69592,-3.70083 6.24474,-5.80853 10.48628,-8.67143 6.12098,-4.13146 12.42498,-7.2556 20.41885,-10.11919 2.99585,-1.07318 3.31973,-1.15288 3.31973,-0.81689 0,0.11353 -0.65344,0.40939 -1.45209,0.65746 -5.16277,1.60364 -13.24352,5.32265 -18.51409,8.52075 -6.83738,4.14882 -13.66482,10.08575 -17.66865,15.36411 l -1.05358,1.38896 1.07477,-1.2627 c 2.42341,-2.84711 8.38511,-8.4889 11.22341,-10.62112 6.91111,-5.19186 14.80196,-9.2949 23.95879,-12.45796 l 3.62969,-1.2538 2.81614,1.22522 c 11.40234,4.96083 27.35555,15.47458 42.50971,28.01546 2.02028,1.67189 1.97907,1.40879 1.06695,6.81147 -3.22626,19.10994 -12.02862,37.6239 -26.90646,56.5923 -3.42237,4.36333 -6.68504,8.18748 -11.15002,13.06885 -3.74399,4.09314 -3.17655,3.84729 -7.38799,3.2009 z M 318.2227,224.65971 c 0.31413,-0.40054 0.3052,-0.40948 -0.0953,-0.0953 -0.24307,0.19063 -0.44195,0.3895 -0.44195,0.44194 0,0.20785 0.20738,0.0741 0.53729,-0.34659 z"
       id="path5098"
       inkscape:connector-curvature="0"
       transform="scale(0.26458333)" />
    <path
       style="fill:none;stroke:#00fe00;stroke-width:0.26458332px;stroke-linecap:butt;stroke-linejoin:miter;stroke-opacity:1;opacity:0.282"
       d="M 74.367744,14.897015 C 62.817763,30.119858 69.669607,38.759934 79.779952,46.234368"
       id="path4509"
       inkscape:connector-curvature="0"
       sodipodi:nodetypes="cc" />
    <path
       style="opacity:0.28200001;fill:#05ff00;fill-opacity:0.99186993;fill-rule:nonzero;stroke:none;stroke-width:0.25293583;stroke-miterlimit:4;stroke-dasharray:none;stroke-dashoffset:0;stroke-opacity:1"
       d="m 282.77339,158.4191 c -6.39337,-6.1754 -9.9594,-10.33841 -13.89046,-16.21576 -4.93745,-7.38204 -7.82972,-14.42967 -9.37932,-22.8547 -0.63719,-3.46435 -0.64066,-12.94083 -0.006,-16.79379 2.24989,-13.662273 8.26501,-26.772378 19.49484,-42.489539 1.21569,-1.701476 2.2859,-3.093592 2.37823,-3.093592 0.28078,0 4.01434,2.927957 7.08933,5.559655 2.59613,2.221869 10.61216,10.20583 22.72843,22.637508 5.81522,5.966597 7.78264,7.039508 12.87945,7.023663 3.33267,-0.01035 4.2182,-0.274574 10.67232,-3.184321 17.6488,-7.956704 33.00187,-12.208229 44.63353,-12.359774 2.33288,-0.03039 3.03539,0.07332 5.84372,0.862692 6.29625,1.769773 12.8447,4.642947 17.51606,7.685279 8.65313,5.635558 16.07295,14.209705 17.27225,19.959379 1.34146,6.43113 -2.68028,12.88776 -10.83253,17.3909 -5.587,3.08616 -18.4582,7.18409 -45.07806,14.35195 -26.05966,7.01702 -35.13983,9.82781 -43.48274,13.46018 -1.74367,0.75917 -2.35084,0.92678 -2.44723,0.67557 -0.14448,-0.3765 -12.49499,4.19759 -23.51801,8.71003 -3.4724,1.42148 -6.59756,2.63877 -6.9448,2.70509 -0.5384,0.10281 -1.264,-0.49052 -4.92885,-4.03042 z m 75.65895,-49.91018 c 0.84163,-0.84163 1.04949,-2.29227 0.32846,-2.29227 -0.34634,0 -0.35803,-0.0623 -0.0756,-0.40262 0.28521,-0.34366 0.24351,-0.47227 -0.28475,-0.87827 -1.18781,-0.91287 -2.57431,-0.501 -3.1781,0.94407 -0.47671,1.14094 -0.0905,2.45667 0.87503,2.98102 1.00206,0.54419 1.51633,0.46668 2.33494,-0.35193 z"
       id="path4511"
       inkscape:connector-curvature="0"
       transform="scale(0.26458333)" />
    <path
       style="opacity:0.28200001;fill:#05ff00;fill-opacity:0.99186994;fill-rule:nonzero;stroke:none;stroke-width:0.25293583;stroke-miterlimit:4;stroke-dasharray:none;stroke-dashoffset:0;stroke-opacity:1"
       d="m 298.43511,171.70709 c -4.89492,-3.76851 -9.96505,-7.97648 -9.84494,-8.17084 0.0641,-0.1037 -0.10947,-0.24766 -0.3857,-0.31989 -0.81756,-0.2138 -0.58304,-0.52446 0.82409,-1.09162 18.62992,-7.50896 28.3125,-11.13973 29.04207,-10.89019 0.38797,0.1327 -1.65137,1.18196 -3.83073,1.97095 -0.89119,0.32263 -1.48508,0.63169 -1.31977,0.6868 0.16531,0.0551 -0.18514,0.44834 -0.77877,0.87386 -2.50315,1.79426 -4.06665,3.38674 -5.62853,5.73286 -2.69439,4.04729 -4.20786,7.69912 -5.09723,12.29901 l -0.20257,1.04773 z m -2.81881,-11.05531 c 3.41676,-1.38173 6.17131,-2.55322 6.12121,-2.60331 -0.10978,-0.10978 -11.36961,4.3922 -12.26751,4.90487 -1.00235,0.57232 -0.43416,0.35955 6.1463,-2.30156 z m 8.62613,-3.45955 c 0.55617,-0.25782 0.72758,-0.39523 0.38091,-0.30536 -0.34666,0.0899 -1.08533,0.37434 -1.6415,0.63216 -0.55616,0.25781 -0.72757,0.39523 -0.3809,0.30536 0.34666,-0.0899 1.08533,-0.37434 1.64149,-0.63216 z m 1.89509,-0.72049 c 0.20835,-0.13464 0.26517,-0.2448 0.12627,-0.2448 -0.1389,0 -0.423,0.11016 -0.63135,0.2448 -0.20834,0.13465 -0.26516,0.24481 -0.12626,0.24481 0.13889,0 0.423,-0.11016 0.63134,-0.24481 z m 2.02031,-0.80022 c 0.26326,-0.16266 0.18624,-0.18254 -0.25254,-0.0652 -0.34724,0.0929 -0.80181,0.2742 -1.01015,0.40292 -0.26327,0.16267 -0.18625,0.18254 0.25253,0.0652 0.34724,-0.0929 0.80181,-0.2742 1.01016,-0.40293 z m 1.26269,-0.46247 c 0.20834,-0.13464 0.26516,-0.2448 0.12627,-0.2448 -0.1389,0 -0.42301,0.11016 -0.63135,0.2448 -0.20834,0.13465 -0.26516,0.24481 -0.12627,0.24481 0.1389,0 0.423,-0.11016 0.63135,-0.24481 z m 2.77792,-1.05276 c 0.26326,-0.16266 0.18624,-0.18254 -0.25254,-0.0652 -0.34724,0.0929 -0.80181,0.2742 -1.01015,0.40292 -0.26327,0.16267 -0.18625,0.18255 0.25253,0.0652 0.34724,-0.0929 0.80181,-0.2742 1.01016,-0.40293 z"
       id="path4513"
       inkscape:connector-curvature="0"
       transform="scale(0.26458333)" />
    <path
       style="fill:none;stroke:#fef600;stroke-width:0.265;stroke-linecap:butt;stroke-linejoin:miter;stroke-opacity:1;opacity:0.394;stroke-miterlimit:4;stroke-dasharray:none"
       d="m 50.848027,35.677221 c 9.21069,5.423673 18.459025,10.702554 29.934185,7.416728"
       id="path5090"
       inkscape:connector-curvature="0"
       sodipodi:nodetypes="cc" />
    <path
       style="opacity:0.394;fill:#ffff00;fill-opacity:0.99186993;fill-rule:nonzero;stroke:none;stroke-width:0.25293583;stroke-miterlimit:4;stroke-dasharray:none;stroke-dashoffset:0;stroke-opacity:1"
       d="m 269.1168,165.68202 c -18.06044,-1.79195 -36.81893,-8.66622 -61.34288,-22.47983 -7.13083,-4.01659 -13.76288,-7.86953 -14.10395,-8.19381 -0.11789,-0.11208 0.34692,-1.0392 1.03292,-2.06026 6.42295,-9.56005 11.52655,-21.12516 20.26611,-45.924363 7.46269,-21.175975 10.54115,-28.043799 14.62733,-32.632479 1.58713,-1.782317 5.37273,-4.87619 8.30389,-6.786557 10.06126,-6.557378 19.08577,-6.249533 31.32,1.06839 1.89106,1.131144 9.37907,6.116815 10.73704,7.148956 0.43296,0.329072 0.29885,0.579585 -2.09852,3.919927 -11.30001,15.744677 -17.50035,29.484718 -19.60467,43.444206 -0.60486,4.01247 -0.60998,11.50634 -0.0105,15.38054 1.31774,8.51609 4.41691,16.3191 9.53065,23.99598 3.70708,5.56517 6.33077,8.68137 12.59901,14.964 l 5.71381,5.72693 -3.16987,1.41292 -3.16987,1.41292 -3.66181,-0.0347 c -2.01399,-0.0191 -5.14989,-0.18233 -6.96868,-0.36279 z M 251.86125,72.143432 c 0.84163,-0.841631 1.04949,-2.292269 0.32846,-2.292269 -0.34634,0 -0.35804,-0.06229 -0.0756,-0.402621 0.28522,-0.343662 0.24352,-0.472277 -0.28475,-0.87827 -1.1878,-0.912872 -2.5743,-0.501008 -3.17809,0.944069 -0.47672,1.140937 -0.0905,2.456663 0.87503,2.981018 1.00206,0.544192 1.51633,0.46668 2.33494,-0.351927 z"
       id="path5093"
       inkscape:connector-curvature="0"
       transform="scale(0.26458333)" />
    <path
       style="opacity:0.394;fill:#ffff00;fill-opacity:0.99186994;fill-rule:nonzero;stroke:none;stroke-width:0.25293583;stroke-miterlimit:4;stroke-dasharray:none;stroke-dashoffset:0;stroke-opacity:1"
       d="m 280.39968,165.97274 c 0.0579,-0.0525 1.40719,-0.67194 2.99849,-1.37655 2.23782,-0.99087 2.97158,-1.2161 3.23896,-0.99419 0.2802,0.23254 0.18659,0.37171 -0.49416,0.73461 -0.46191,0.24625 -0.74897,0.45248 -0.6379,0.45831 0.11107,0.006 0.54966,-0.16923 0.97465,-0.389 0.74908,-0.38737 0.79526,-0.37797 1.51045,0.30723 0.92684,0.88797 0.75361,0.96843 -2.56078,1.18933 l -2.39911,0.15991 0.88389,-0.49159 c 1.16588,-0.64843 0.7629,-0.65456 -0.50508,-0.008 -0.79903,0.40763 -3.39706,0.76126 -3.00941,0.40962 z"
       id="path5095"
       inkscape:connector-curvature="0"
       transform="scale(0.26458333)" />
    <path
       style="opacity:0.394;fill:#ffff00;fill-opacity:0.99186994;fill-rule:nonzero;stroke:none;stroke-width:0.25293583;stroke-miterlimit:4;stroke-dasharray:none;stroke-dashoffset:0;stroke-opacity:1"
       d="m 289.20583,164.06027 c -0.748,-0.68767 -1.30707,-1.30226 -1.24239,-1.36576 0.33485,-0.3287 20.42697,-8.19838 25.95613,-10.16649 4.66599,-1.66086 5.16268,-1.37581 0.74111,0.42532 -1.07644,0.43849 -1.96612,0.92653 -1.97705,1.08454 -0.0109,0.15801 -0.89167,0.9705 -1.95717,1.80553 -1.2581,0.98596 -2.48856,2.26974 -3.50971,3.6618 -0.86483,1.17896 -1.73305,2.32993 -1.92938,2.55772 -0.5296,0.61445 -12.1176,3.24765 -14.29201,3.24765 -0.23625,0 -1.04153,-0.56264 -1.78953,-1.25031 z m 6.73794,-3.48057 c 3.2545,-1.32423 5.865,-2.45997 5.8011,-2.52387 -0.13684,-0.13685 -11.3515,4.31627 -12.27487,4.8741 -0.62207,0.37581 -0.62262,0.37903 -0.0374,0.21943 0.32665,-0.0891 3.25669,-1.24543 6.5112,-2.56966 z m 8.29972,-3.37509 c 0.55558,-0.26072 0.72604,-0.40609 0.3788,-0.32303 -0.34724,0.0831 -1.08591,0.36434 -1.6415,0.62506 -0.55558,0.26073 -0.72604,0.40609 -0.3788,0.32303 0.34724,-0.083 1.08591,-0.36433 1.6415,-0.62506 z m 2.0203,-0.73287 c 0.0858,-0.13889 -0.0144,-0.25253 -0.22273,-0.25253 -0.20834,0 -0.44904,0.11364 -0.53488,0.25253 -0.0858,0.1389 0.0144,0.25254 0.22273,0.25254 0.20834,0 0.44904,-0.11364 0.53488,-0.25254 z m 1.6415,-0.63134 c 0.36485,-0.20857 0.47145,-0.36091 0.25254,-0.36091 -0.20835,0 -0.66292,0.16241 -1.01016,0.36091 -0.36485,0.20857 -0.47145,0.36091 -0.25253,0.36091 0.20834,0 0.66291,-0.16241 1.01015,-0.36091 z m 1.6415,-0.63135 c 0.0858,-0.13889 -0.0144,-0.25254 -0.22273,-0.25254 -0.20835,0 -0.44905,0.11365 -0.53489,0.25254 -0.0858,0.1389 0.0144,0.25254 0.22273,0.25254 0.20835,0 0.44904,-0.11364 0.53489,-0.25254 z m 2.39911,-0.88388 c 0.36485,-0.20857 0.47145,-0.36091 0.25254,-0.36091 -0.20835,0 -0.66292,0.16241 -1.01016,0.36091 -0.36485,0.20857 -0.47145,0.36091 -0.25253,0.36091 0.20834,0 0.66291,-0.16241 1.01015,-0.36091 z"
       id="path5097"
       inkscape:connector-curvature="0"
       transform="scale(0.26458333)" />
    <path
       style="fill:none;stroke:#fbfc00;stroke-width:0.26458332px;stroke-linecap:butt;stroke-linejoin:miter;stroke-opacity:1;opacity:0.342"
       d="m 88.332576,23.650092 c 2.708943,2.194976 5.111429,9.666247 1.202714,14.499371 v 0"
       id="path5099"
       inkscape:connector-curvature="0"
       sodipodi:nodetypes="ccc" />
    <path
       style="opacity:0.34200003;fill:#ffff00;fill-opacity:0.99186994;fill-rule:nonzero;stroke:#fbfc00;stroke-width:0.25293583;stroke-miterlimit:4;stroke-dasharray:none;stroke-dashoffset:0;stroke-opacity:1"
       d="m 279.99862,156.91369 c -7.55461,-7.62448 -10.80294,-11.72219 -14.7262,-18.57679 -3.72787,-6.51322 -6.02953,-13.34398 -7.01398,-20.81581 -0.49641,-3.76763 -0.3655,-11.29561 0.26685,-15.34505 1.45748,-9.333434 5.14083,-19.118008 11.13876,-29.589382 2.11936,-3.70006 6.70901,-10.709674 9.27136,-14.159859 1.39524,-1.878669 1.68583,-2.150148 1.95471,-1.826164 0.25763,0.31043 0.22797,0.484392 -0.16096,0.944031 l -0.4768,0.563474 0.55881,-0.47257 c 0.30734,-0.259913 0.72038,-0.410567 0.91786,-0.334785 0.19748,0.07578 1.82112,1.295537 3.60808,2.710569 2.38545,1.888962 6.77294,6.107613 16.50726,15.872045 8.63047,8.65716 13.81806,13.670959 14.86206,14.364153 1.94257,1.289834 3.55275,1.804289 6.22488,1.988867 2.71622,0.187626 4.67826,-0.179752 7.88509,-1.476426 l 2.68773,-1.086778 1.71213,1.808895 c 3.88021,4.09952 6.96127,10.17843 8.80508,17.37234 1.22752,4.78937 1.38691,6.2007 1.37053,12.13569 -0.013,4.73694 -0.0961,5.91935 -0.56332,8.02213 -1.09299,4.91908 -2.73761,8.89098 -5.1904,12.53525 -0.78556,1.16715 -1.42829,2.20134 -1.42829,2.29821 0,0.0969 -2.35807,0.94382 -5.24016,1.88212 -2.88209,0.9383 -7.22891,2.50149 -9.65959,3.47374 -2.43068,0.97226 -4.70352,1.7631 -5.05076,1.75744 -1.08795,-0.0178 -8.83327,2.83013 -21.92244,8.06065 -4.48751,1.79324 -8.43518,3.26044 -8.77258,3.26044 -1.09536,0 -10.76348,-9.67445 -14.66759,-14.67718 -6.82121,-8.7407 -10.85469,-16.89448 -12.85243,-25.98146 -0.32062,-1.45841 -0.59026,-2.42437 -0.59918,-2.14657 -0.0606,1.8845 2.45652,10.04078 4.34731,14.08698 1.3916,2.97793 4.1359,7.65572 6.10673,10.40922 3.78437,5.28722 9.41322,11.57795 14.33891,16.02499 1.60857,1.45225 2.86889,2.73073 2.8007,2.84105 -0.37649,0.60918 -1.52413,-0.35642 -7.04016,-5.92346 z M 259.2917,110.82545 c 0,-4.8021 -0.0783,-7.46096 -0.19511,-6.6291 -0.28335,2.01718 -0.3451,9.86178 -0.0979,12.4375 0.11665,1.21534 0.23029,2.2097 0.25254,2.20968 0.0223,-2e-5 0.0405,-3.60816 0.0405,-8.01808 z m 2.15739,-16.59625 c 1.19018,-4.264043 3.0989,-9.151429 5.5509,-14.213377 1.22788,-2.534851 2.18425,-4.608821 2.12527,-4.608821 -0.18132,0 -3.2945,6.337629 -4.47831,9.116698 -2.31868,5.443209 -4.68699,13.371091 -5.0847,17.021 -0.0757,0.69448 0.14395,-0.0442 0.48807,-1.641499 0.34411,-1.597303 0.97356,-4.150605 1.39877,-5.674001 z m 9.08055,-20.968772 c 0.45837,-0.833376 0.71521,-1.401586 0.57076,-1.26269 -0.14445,0.138896 -0.63453,0.934391 -1.08906,1.767767 -0.45453,0.833375 -0.71138,1.401586 -0.57076,1.26269 0.14062,-0.138896 0.6307,-0.934391 1.08906,-1.767767 z m 1.91912,-3.219861 c 0.52004,-0.8681 2.22851,-3.485867 3.79661,-5.81726 1.5681,-2.331393 2.73979,-4.170111 2.60376,-4.086039 -0.13604,0.08407 -1.65024,2.275681 -3.3649,4.870243 -3.37084,5.100611 -4.30994,6.611419 -4.10958,6.611419 0.0707,0 0.55407,-0.710263 1.07411,-1.578363 z m 7.4248,-11.048543 c 0.2967,-0.416688 0.48264,-0.757615 0.4132,-0.757615 -0.0695,0 -0.36903,0.340927 -0.66574,0.757615 -0.29671,0.416688 -0.48265,0.757614 -0.4132,0.757614 0.0694,0 0.36903,-0.340926 0.66574,-0.757614 z"
       id="path5101"
       inkscape:connector-curvature="0"
       transform="scale(0.26458333)" />
    <path
       style="opacity:0.34200003;fill:#ffff00;fill-opacity:0.99186994;fill-rule:nonzero;stroke:#fbfc00;stroke-width:0.25293583;stroke-miterlimit:4;stroke-dasharray:none;stroke-dashoffset:0;stroke-opacity:1"
       d="m 287.83176,164.40703 c -0.99896,-0.90358 -1.18352,-1.18612 -0.89235,-1.36607 0.41089,-0.25395 1.09778,0.16419 0.87141,0.53047 -0.0761,0.12315 0.0733,0.22392 0.33205,0.22392 0.25874,0 0.85595,0.39775 1.32713,0.88388 0.84394,0.87073 0.8475,0.88376 0.23895,0.87544 -0.36978,-0.005 -1.1233,-0.46572 -1.87719,-1.14764 z"
       id="path5103"
       inkscape:connector-curvature="0"
       transform="scale(0.26458333)" />
  </g>
  <g
     inkscape:label="Layer 1"
     inkscape:groupmode="layer"
     id="layer1">
    <path
       style="fill:none;stroke:#000000;stroke-width:0.20453465;stroke-linecap:butt;stroke-linejoin:miter;stroke-miterlimit:4;stroke-dasharray:none;stroke-opacity:1"
       d="m 17.76503,44.183969 c 2.740332,-3.968145 7.543552,-4.687535 22.171704,-2.917329 14.628152,1.770206 16.126042,-22.736519 21.004773,-27.27703 4.878732,-4.5405116 8.234773,-2.761858 12.252784,0 4.018009,2.761857 4.803507,4.023195 7.147459,6.272258 2.343952,2.249063 3.686903,5.288426 7.439191,3.500795 3.752285,-1.78763 8.751992,-3.648698 13.127989,-3.646662 4.01405,0.877876 7.26552,2.819069 9.48132,5.83466 2.33062,3.17186 -0.0602,5.83642 -2.91734,7.001591 -8.188832,3.339533 -23.579497,5.546131 -26.1101,9.335456 -3.004267,4.498602 -1.255673,7.42918 2.6256,8.022653 6.401127,0.978776 9.789186,0.42428 17.94158,6.126392 7.48484,5.2352 13.0124,10.501518 11.96105,16.774646 -0.74072,4.419594 -2.14228,6.659368 -4.52186,7.293326 -7.04173,1.876021 -13.54704,1.921286 -18.233307,0.29173 C 85.705452,78.908135 80.622418,75.724993 78.59135,72.3362 70.820363,59.370454 64.169948,57.047439 57.732444,58.187153 c -12.931531,2.289434 -23.463837,4.66608 -29.75676,1.458663 -3.456166,-1.76156 -7.337542,-3.166592 -10.210654,-6.12639 -2.472852,-2.547463 -2.366795,-5.908211 0,-9.335457 z"
       id="path4485"
       inkscape:connector-curvature="0"
       sodipodi:nodetypes="szzzzzcsssssssssssss" />
    <path
       style="fill:none;stroke:#000000;stroke-width:0.26499999;stroke-linecap:butt;stroke-linejoin:miter;stroke-miterlimit:4;stroke-dasharray:none;stroke-opacity:1"
       d="m 156.2244,44.330006 c 0.71634,3.670381 -0.79109,7.475864 4.38303,10.95755 1.91138,1.286176 4.47297,2.515593 11.10365,2.483712 2.89919,-0.01394 5.45525,-0.08575 8.61994,-3.944718 0.58272,-0.710556 3.4139,-7.311949 -1.46101,-7.743337 -2.91886,-0.258294 -5.28037,-0.215892 -7.30503,-2.337612 -2.12323,-2.225019 -3.052,-5.396487 -5.40573,-6.428429 -3.21175,-1.408128 -5.30105,-0.174036 -7.30504,1.022705 -2.5566,1.526742 -3.05028,3.835621 -2.62981,5.990129 z"
       id="path4487"
       inkscape:connector-curvature="0"
       sodipodi:nodetypes="sssssssss" />
    <path
       style="fill:none;stroke:#000000;stroke-width:0.26458332px;stroke-linecap:butt;stroke-linejoin:miter;stroke-opacity:1;marker-end:url(#Arrow2Lend)"
       d="m 120.19643,46.590772 h 28.72619"
       id="path4489"
       inkscape:connector-curvature="0" />
    <path
       style="fill:none;stroke:#000000;stroke-width:0.26458332px;stroke-linecap:butt;stroke-linejoin:miter;stroke-opacity:1"
       d="m 159.82717,42.559409 c 3.08206,2.127458 5.46825,1.471415 7.48355,-0.668174"
       id="path4773"
       inkscape:connector-curvature="0"
       sodipodi:nodetypes="cc" />
    <path
       style="fill:none;stroke:#000000;stroke-width:0.26458332px;stroke-linecap:butt;stroke-linejoin:miter;stroke-opacity:1"
       d="m 161.63124,43.494851 c 1.31909,-0.793038 2.78064,-0.616447 4.27632,-0.534538"
       id="path4775"
       inkscape:connector-curvature="0"
       sodipodi:nodetypes="cc" />
    <path
       style="opacity:0.894;fill:#f60000;fill-opacity:1;fill-rule:nonzero;stroke:#f60000;stroke-width:0.26499999;stroke-miterlimit:4;stroke-dasharray:none;stroke-dashoffset:0;stroke-opacity:1"
       id="path4777"
       sodipodi:type="arc"
       sodipodi:cx="172.65611"
       sodipodi:cy="51.446121"
       sodipodi:rx="0.4009043"
       sodipodi:ry="0.46772167"
       sodipodi:start="0"
       sodipodi:end="5.4427395"
       d="m 173.05702,51.446121 a 0.4009043,0.46772167 0 0 1 -0.31729,0.457436 0.4009043,0.46772167 0 0 1 -0.44964,-0.266622 0.4009043,0.46772167 0 0 1 0.12972,-0.568654 0.4009043,0.46772167 0 0 1 0.50376,0.02942 l -0.26746,0.348425 z" />
    <path
       style="opacity:0.894;fill:#f60000;fill-opacity:1;fill-rule:nonzero;stroke:#f60000;stroke-width:0.26499999;stroke-miterlimit:4;stroke-dasharray:none;stroke-dashoffset:0;stroke-opacity:1"
       id="path4777-9"
       sodipodi:type="arc"
       sodipodi:cx="106.24017"
       sodipodi:cy="75.164612"
       sodipodi:rx="0.4009043"
       sodipodi:ry="0.46772167"
       sodipodi:start="0"
       sodipodi:end="5.4427395"
       d="m 106.64108,75.164612 a 0.4009043,0.46772167 0 0 1 -0.31729,0.457435 0.4009043,0.46772167 0 0 1 -0.44964,-0.266622 0.4009043,0.46772167 0 0 1 0.12972,-0.568653 0.4009043,0.46772167 0 0 1 0.50376,0.02942 l -0.26746,0.348425 z" />
    <path
       style="opacity:0.894;fill:#f60000;fill-opacity:1;fill-rule:nonzero;stroke:#f60000;stroke-width:0.26499999;stroke-miterlimit:4;stroke-dasharray:none;stroke-dashoffset:0;stroke-opacity:1"
       id="path4777-6"
       sodipodi:type="arc"
       sodipodi:cx="80.04776"
       sodipodi:cy="60.197521"
       sodipodi:rx="0.4009043"
       sodipodi:ry="0.46772167"
       sodipodi:start="0"
       sodipodi:end="5.4427395"
       d="m 80.448664,60.197521 a 0.4009043,0.46772167 0 0 1 -0.317288,0.457436 0.4009043,0.46772167 0 0 1 -0.449641,-0.266622 0.4009043,0.46772167 0 0 1 0.129726,-0.568654 0.4009043,0.46772167 0 0 1 0.503755,0.02942 l -0.267456,0.348425 z" />
    <path
       style="opacity:0.894;fill:#f60000;fill-opacity:1;fill-rule:nonzero;stroke:#f60000;stroke-width:0.26499999;stroke-miterlimit:4;stroke-dasharray:none;stroke-dashoffset:0;stroke-opacity:1"
       id="path4777-61"
       sodipodi:type="arc"
       sodipodi:cx="94.480316"
       sodipodi:cy="28.258816"
       sodipodi:rx="0.4009043"
       sodipodi:ry="0.46772167"
       sodipodi:start="0"
       sodipodi:end="5.4427395"
       d="m 94.88122,28.258816 a 0.4009043,0.46772167 0 0 1 -0.317288,0.457435 0.4009043,0.46772167 0 0 1 -0.449641,-0.266622 0.4009043,0.46772167 0 0 1 0.129726,-0.568653 0.4009043,0.46772167 0 0 1 0.503755,0.02942 l -0.267456,0.348425 z" />
    <path
       style="opacity:0.894;fill:#f60000;fill-opacity:1;fill-rule:nonzero;stroke:#f60000;stroke-width:0.26499999;stroke-miterlimit:4;stroke-dasharray:none;stroke-dashoffset:0;stroke-opacity:1"
       id="path4777-3"
       sodipodi:type="arc"
       sodipodi:cx="66.283386"
       sodipodi:cy="18.637112"
       sodipodi:rx="0.4009043"
       sodipodi:ry="0.46772167"
       sodipodi:start="0"
       sodipodi:end="5.4427395"
       d="m 66.684291,18.637112 a 0.4009043,0.46772167 0 0 1 -0.317289,0.457435 0.4009043,0.46772167 0 0 1 -0.449641,-0.266622 0.4009043,0.46772167 0 0 1 0.129726,-0.568653 0.4009043,0.46772167 0 0 1 0.503755,0.02942 l -0.267456,0.348425 z" />
    <path
       style="opacity:0.894;fill:#f60000;fill-opacity:1;fill-rule:nonzero;stroke:#f60000;stroke-width:0.26499999;stroke-miterlimit:4;stroke-dasharray:none;stroke-dashoffset:0;stroke-opacity:1"
       id="path4777-32"
       sodipodi:type="arc"
       sodipodi:cx="27.128395"
       sodipodi:cy="50.041283"
       sodipodi:rx="0.4009043"
       sodipodi:ry="0.46772167"
       sodipodi:start="0"
       sodipodi:end="5.4427395"
       d="m 27.529299,50.041283 a 0.4009043,0.46772167 0 0 1 -0.317288,0.457435 0.4009043,0.46772167 0 0 1 -0.449641,-0.266622 0.4009043,0.46772167 0 0 1 0.129726,-0.568653 0.4009043,0.46772167 0 0 1 0.503755,0.02942 l -0.267456,0.348425 z" />
    <path
       style="opacity:0.894;fill:#f60000;fill-opacity:1;fill-rule:nonzero;stroke:#f60000;stroke-width:0.26499999;stroke-miterlimit:4;stroke-dasharray:none;stroke-dashoffset:0;stroke-opacity:1"
       id="path4777-8"
       sodipodi:type="arc"
       sodipodi:cx="63.076138"
       sodipodi:cy="45.4977"
       sodipodi:rx="0.4009043"
       sodipodi:ry="0.46772167"
       sodipodi:start="0"
       sodipodi:end="5.4427395"
       d="m 63.477042,45.4977 a 0.4009043,0.46772167 0 0 1 -0.317288,0.457435 0.4009043,0.46772167 0 0 1 -0.449641,-0.266622 0.4009043,0.46772167 0 0 1 0.129726,-0.568653 0.4009043,0.46772167 0 0 1 0.503754,0.02942 L 63.076138,45.4977 Z" />
    <path
       style="fill:none;stroke:#0000c5;stroke-width:0.26458332px;stroke-linecap:butt;stroke-linejoin:miter;stroke-opacity:0.97560978;fill-opacity:1;opacity:0.27"
       d="M 79.312232,73.295406 C 80.377825,64.228379 83.072117,55.98905 94.88068,52.381565"
       id="path4504"
       inkscape:connector-curvature="0"
       sodipodi:nodetypes="cc" />
  </g>
</svg>
