<?xml version="1.0" encoding="UTF-8" standalone="no"?>
<!-- Created with Inkscape (http://www.inkscape.org/) -->

<svg
   xmlns:dc="http://purl.org/dc/elements/1.1/"
   xmlns:cc="http://creativecommons.org/ns#"
   xmlns:rdf="http://www.w3.org/1999/02/22-rdf-syntax-ns#"
   xmlns:svg="http://www.w3.org/2000/svg"
   xmlns="http://www.w3.org/2000/svg"
   xmlns:sodipodi="http://sodipodi.sourceforge.net/DTD/sodipodi-0.dtd"
   xmlns:inkscape="http://www.inkscape.org/namespaces/inkscape"
   width="210mm"
   height="297mm"
   viewBox="0 0 210 297"
   version="1.1"
   id="svg8"
   inkscape:version="0.92.1 r15371"
   sodipodi:docname="SCGraphs.svg">
  <defs
     id="defs2" />
  <sodipodi:namedview
     id="base"
     pagecolor="#ffffff"
     bordercolor="#666666"
     borderopacity="1.0"
     inkscape:pageopacity="0.0"
     inkscape:pageshadow="2"
     inkscape:zoom="1.4"
     inkscape:cx="424.3984"
     inkscape:cy="880.32089"
     inkscape:document-units="mm"
     inkscape:current-layer="layer1"
     showgrid="false"
     inkscape:window-width="1920"
     inkscape:window-height="986"
     inkscape:window-x="-11"
     inkscape:window-y="-11"
     inkscape:window-maximized="1" />
  <metadata
     id="metadata5">
    <rdf:RDF>
      <cc:Work
         rdf:about="">
        <dc:format>image/svg+xml</dc:format>
        <dc:type
           rdf:resource="http://purl.org/dc/dcmitype/StillImage" />
        <dc:title />
      </cc:Work>
    </rdf:RDF>
  </metadata>
  <g
     inkscape:label="Layer 1"
     inkscape:groupmode="layer"
     id="layer1">
    <path
       style="fill:none;stroke:#000000;stroke-width:0.26458332px;stroke-linecap:butt;stroke-linejoin:miter;stroke-opacity:1"
       d="m 30.427083,4.4464282 -11.90625,18.1428568 21.355654,1e-6 z"
       id="path4485"
       inkscape:connector-curvature="0"
       sodipodi:nodetypes="cccc" />
    <path
       style="fill:none;stroke:#000000;stroke-width:0.26458332px;stroke-linecap:butt;stroke-linejoin:miter;stroke-opacity:1"
       d="m 18.331845,35.629463 19.843749,0 -0.188987,17.197917 -19.84375,-0.188988 z"
       id="path4487"
       inkscape:connector-curvature="0"
       sodipodi:nodetypes="ccccc" />
    <path
       style="fill:none;stroke:#000000;stroke-width:0.26458332px;stroke-linecap:butt;stroke-linejoin:miter;stroke-opacity:1"
       d="m 76.540178,13.895833 9.827382,10.96131 15.49702,-0.188988 8.31548,-11.339286 L 102.99851,2.9345235 86.17857,2.3675592 Z"
       id="path4489"
       inkscape:connector-curvature="0" />
    <path
       style="fill:none;stroke:#000000;stroke-width:0.26458332px;stroke-linecap:butt;stroke-linejoin:miter;stroke-opacity:1"
       d="M 93.738095,14.084821 86.36756,24.857143"
       id="path4491"
       inkscape:connector-curvature="0" />
    <path
       style="fill:none;stroke:#000000;stroke-width:0.26458332px;stroke-linecap:butt;stroke-linejoin:miter;stroke-opacity:1"
       d="M 101.86458,24.668155 93.738095,14.084821 110.18006,13.328869"
       id="path4493"
       inkscape:connector-curvature="0" />
    <path
       style="fill:none;stroke:#000000;stroke-width:0.26458332px;stroke-linecap:butt;stroke-linejoin:miter;stroke-opacity:1"
       d="M 102.99851,2.9345235 93.738095,14.084821 86.178568,2.3675592"
       id="path4495"
       inkscape:connector-curvature="0" />
    <path
       style="fill:none;stroke:#000000;stroke-width:0.26458332px;stroke-linecap:butt;stroke-linejoin:miter;stroke-opacity:1"
       d="M 93.738095,14.084821 76.540178,13.895833"
       id="path4497"
       inkscape:connector-curvature="0" />
    <path
       style="fill:none;stroke:#000000;stroke-width:0.26458332px;stroke-linecap:butt;stroke-linejoin:miter;stroke-opacity:1"
       d="m 81.642855,36.007441 9.260417,-4.15774 10.583338,0.18899 6.04762,3.590774 3.77976,6.992559 -0.18899,10.016368 -3.59077,7.559524 -8.126493,3.212798 -9.827382,0.188987 -6.614583,-3.96875 -6.614583,-7.370535 -0.188987,-7.181548 z"
       id="path4499"
       inkscape:connector-curvature="0" />
    <path
       style="fill:none;stroke:#000000;stroke-width:0.26458332px;stroke-linecap:butt;stroke-linejoin:miter;stroke-opacity:1"
       d="m 83.910713,41.488094 5.10268,-4.724702 7.9375,-0.566965 5.291667,1.700895 3.77976,3.401785 1.88988,5.480653 -1.88988,7.559525 -3.59077,2.645833 -8.693455,2.456847 -5.10268,-2.267858 -4.724702,-3.779763 -1.511903,-4.913688 z"
       id="path4501"
       inkscape:connector-curvature="0" />
    <path
       style="fill:none;stroke:#000000;stroke-width:0.26458332px;stroke-linecap:butt;stroke-linejoin:miter;stroke-opacity:1"
       d="m 89.013393,36.763392 1.889879,-4.913691 6.047621,4.346726 4.535717,-4.157736 0.75595,5.858631 5.29167,-2.267857 -1.51191,5.669642 5.29167,1.322917 -3.40179,4.157736 3.2128,5.858632 -5.10268,1.700893 1.51191,5.858631 -5.10268,-3.212798 -3.023813,6.425596 -5.669642,-3.968749 -4.15774,4.157736 -0.94494,-6.425594 -5.669643,2.456844 0.944941,-6.236607 -7.559524,-1.133928 6.047621,-3.77976 -6.236608,-3.401788 7.748511,-3.590774 -2.267858,-5.480653 z"
       id="path4503"
       inkscape:connector-curvature="0" />
    <path
       style="fill:none;stroke:#000000;stroke-width:0.26458332px;stroke-linecap:butt;stroke-linejoin:miter;stroke-opacity:1"
       d="m 140.60715,17.486607 5.48065,-7.181548 8.69346,-6.0476188 9.4494,-1.5119048 11.1503,2.6458333 8.69345,5.6696423 3.77976,6.803572 -3.77976,6.99256 -8.69345,2.645833 -10.77232,1.700893 -10.39435,-2.456844 -9.4494,-4.346727 z"
       id="path4505"
       inkscape:connector-curvature="0" />
    <path
       style="fill:none;stroke:#000000;stroke-width:0.26458332px;stroke-linecap:butt;stroke-linejoin:miter;stroke-opacity:1"
       d="m 144.76489,22.400298 3.40178,-6.425596 -2.07887,-5.669643"
       id="path4507"
       inkscape:connector-curvature="0" />
    <path
       style="fill:none;stroke:#000000;stroke-width:0.26458332px;stroke-linecap:butt;stroke-linejoin:miter;stroke-opacity:1"
       d="m 140.60715,17.486607 7.55952,-1.511905 8.12649,-5.291667 -10.20536,-0.377976"
       id="path4509"
       inkscape:connector-curvature="0" />
    <path
       style="fill:none;stroke:#000000;stroke-width:0.26458332px;stroke-linecap:butt;stroke-linejoin:miter;stroke-opacity:1"
       d="m 156.29316,10.683035 -1.5119,-6.4255948 11.71726,5.1026783 -10.20536,1.3229165 v 5.669643 l -8.12649,-0.377976 8.31548,5.480655 -11.71726,0.944941"
       id="path4511"
       inkscape:connector-curvature="0" />
    <path
       style="fill:none;stroke:#000000;stroke-width:0.26458332px;stroke-linecap:butt;stroke-linejoin:miter;stroke-opacity:1"
       d="m 154.21429,26.747025 2.26786,-5.291668 -0.18899,-5.102679 10.20536,-6.9925595 -2.26786,-6.6145831"
       id="path4513"
       inkscape:connector-curvature="0" />
    <path
       style="fill:none;stroke:#000000;stroke-width:0.26458332px;stroke-linecap:butt;stroke-linejoin:miter;stroke-opacity:1"
       d="m 175.38096,5.3913687 -8.88244,3.9687498 10.58333,2.6458335 -1.70089,-6.6145833"
       id="path4515"
       inkscape:connector-curvature="0" />
    <path
       style="fill:none;stroke:#000000;stroke-width:0.26458332px;stroke-linecap:butt;stroke-linejoin:miter;stroke-opacity:1"
       d="m 184.07441,11.061011 -6.99256,0.944941 10.77232,5.858631 -10.58333,0.566965 -0.18899,-6.425596 -9.82738,3.590774 -10.96131,0.755952 10.77232,4.346727 -10.58333,0.755952"
       id="path4517"
       inkscape:connector-curvature="0" />
    <path
       style="fill:none;stroke:#000000;stroke-width:0.26458332px;stroke-linecap:butt;stroke-linejoin:miter;stroke-opacity:1"
       d="m 167.06548,20.699405 0.18899,-5.102679 -0.75595,-6.2366075"
       id="path4519"
       inkscape:connector-curvature="0" />
    <path
       style="fill:none;stroke:#000000;stroke-width:0.26458332px;stroke-linecap:butt;stroke-linejoin:miter;stroke-opacity:1"
       d="m 167.25447,15.596726 10.01637,2.834822 -10.20536,2.267857 -12.85119,6.04762"
       id="path4521"
       inkscape:connector-curvature="0" />
    <path
       style="fill:none;stroke:#000000;stroke-width:0.26458332px;stroke-linecap:butt;stroke-linejoin:miter;stroke-opacity:1"
       d="m 164.60864,29.203869 2.45684,-8.504464 10.39435,2.078869 -0.18899,-4.346726"
       id="path4525"
       inkscape:connector-curvature="0" />
    <path
       style="fill:none;stroke:#000000;stroke-width:0.26458332px;stroke-linecap:butt;stroke-linejoin:miter;stroke-opacity:1"
       d="m 184.07441,24.857143 -6.61458,-2.078869 -2.07887,4.724702"
       id="path4527"
       inkscape:connector-curvature="0" />
    <path
       style="fill:none;stroke:#000000;stroke-width:0.26458332px;stroke-linecap:butt;stroke-linejoin:miter;stroke-opacity:1"
       d="m 184.07441,24.857143 -6.80357,-6.425595"
       id="path4529"
       inkscape:connector-curvature="0" />
    <path
       style="fill:none;stroke:#000000;stroke-width:0.26458332px;stroke-linecap:butt;stroke-linejoin:miter;stroke-opacity:1"
       d="m 164.60864,29.203869 12.85119,-6.425595"
       id="path4531"
       inkscape:connector-curvature="0" />
    <path
       style="fill:none;stroke:#000000;stroke-width:0.26458332px;stroke-linecap:butt;stroke-linejoin:miter;stroke-opacity:1"
       d="m 140.64407,47.724724 5.48065,-7.181547 8.69346,-6.04762 9.4494,-1.511905 11.1503,2.645834 8.69345,5.669643 3.77976,6.80357 -3.77976,6.992561 -8.69345,2.645833 -10.77232,1.700892 -10.39435,-2.456843 -9.4494,-4.346728 z"
       id="path4505-5"
       inkscape:connector-curvature="0" />
    <path
       style="fill:none;stroke:#000000;stroke-width:0.26458332px;stroke-linecap:butt;stroke-linejoin:miter;stroke-opacity:1"
       d="m 144.80181,52.638414 3.40178,-6.425595 -2.07887,-5.669642"
       id="path4507-3"
       inkscape:connector-curvature="0" />
    <path
       style="fill:none;stroke:#000000;stroke-width:0.26458332px;stroke-linecap:butt;stroke-linejoin:miter;stroke-opacity:1"
       d="m 140.64407,47.724724 7.55952,-1.511905 8.12649,-5.291667 -10.20536,-0.377975"
       id="path4509-7"
       inkscape:connector-curvature="0" />
    <path
       style="fill:none;stroke:#000000;stroke-width:0.26458332px;stroke-linecap:butt;stroke-linejoin:miter;stroke-opacity:1"
       d="m 156.33008,40.921152 -1.5119,-6.425595 11.71726,5.102679 -10.20536,1.322916 v 5.669643 l -8.12649,-0.377976 8.31548,5.480655 -11.71726,0.94494"
       id="path4511-9"
       inkscape:connector-curvature="0" />
    <path
       style="fill:none;stroke:#000000;stroke-width:0.26458332px;stroke-linecap:butt;stroke-linejoin:miter;stroke-opacity:1"
       d="m 154.25121,56.985142 2.26786,-5.291668 -0.18899,-5.102679 10.20536,-6.992559 -2.26786,-6.614584"
       id="path4513-8"
       inkscape:connector-curvature="0" />
    <path
       style="fill:none;stroke:#000000;stroke-width:0.26458332px;stroke-linecap:butt;stroke-linejoin:miter;stroke-opacity:1"
       d="m 175.41788,35.629486 -8.88244,3.96875 10.58333,2.645833 -1.70089,-6.614583"
       id="path4515-6"
       inkscape:connector-curvature="0" />
    <path
       style="fill:none;stroke:#000000;stroke-width:0.26458332px;stroke-linecap:butt;stroke-linejoin:miter;stroke-opacity:1"
       d="m 167.1024,50.937521 0.18899,-5.102679 -0.75595,-6.236606"
       id="path4519-7"
       inkscape:connector-curvature="0" />
    <path
       style="fill:none;stroke:#000000;stroke-width:0.26458332px;stroke-linecap:butt;stroke-linejoin:miter;stroke-opacity:1"
       d="m 167.29139,45.834842 10.01637,2.834822 -10.20536,2.267857 -12.85119,6.047621"
       id="path4521-2"
       inkscape:connector-curvature="0" />
    <path
       style="fill:none;stroke:#000000;stroke-width:0.26458332px;stroke-linecap:butt;stroke-linejoin:miter;stroke-opacity:1"
       d="m 164.64556,59.441985 2.45684,-8.504464 10.39435,2.07887 -0.18899,-4.346727"
       id="path4525-2"
       inkscape:connector-curvature="0" />
    <path
       style="fill:none;stroke:#000000;stroke-width:0.26458332px;stroke-linecap:butt;stroke-linejoin:miter;stroke-opacity:1"
       d="m 184.11133,55.09526 -6.61458,-2.078869 -2.07887,4.724702"
       id="path4527-6"
       inkscape:connector-curvature="0" />
    <path
       style="fill:none;stroke:#000000;stroke-width:0.26458332px;stroke-linecap:butt;stroke-linejoin:miter;stroke-opacity:1"
       d="m 184.11133,55.09526 -6.80357,-6.425596"
       id="path4529-9"
       inkscape:connector-curvature="0" />
    <path
       style="fill:none;stroke:#000000;stroke-width:0.26458332px;stroke-linecap:butt;stroke-linejoin:miter;stroke-opacity:1"
       d="m 164.64556,59.441985 12.85119,-6.425594"
       id="path4531-7"
       inkscape:connector-curvature="0" />
  </g>
</svg>
